<?xml version="1.0" encoding="UTF-8" standalone="no"?>
<svg width="72px" height="54px" viewBox="0 0 72 54" version="1.1" xmlns="http://www.w3.org/2000/svg" xmlns:xlink="http://www.w3.org/1999/xlink">
    <!-- Generator: Sketch 3.8 (29681) - http://www.bohemiancoding.com/sketch -->
    <title>1469063946_cloud-envelope-closed</title>
    <desc>Created with Sketch.</desc>
    <defs></defs>
    <g id="Page-1" stroke="none" stroke-width="1" fill="none" fill-rule="evenodd">
        <g id="1469063902_web" fill="#38359C">
            <g id="Layer_1">
                <g id="1469063946_cloud-envelope-closed">
                    <g id="cloud-envelope-closed">
                        <g id="cloud-envelope-closed_1_">
                            <path d="M58.0438245,17.1544787 C57.425266,17.1544787 56.8206383,17.2100585 56.2229043,17.2893351 C55.6984149,7.65263298 47.7200585,0 37.9532394,0 C29.9810585,0 23.9083564,5.80399468 21.3979309,12.9173457 C20.0599947,12.5660585 17.9479628,11.6733351 16.5005904,11.6733351 C7.38751596,11.6733351 0,19.060133 0,28.1760798 C0,36.9456223 6.84306383,44.0953085 15.4800479,44.6251117 L15.4800479,50.1586755 C15.4800479,51.2309202 16.135516,52.1930106 17.1337979,52.587383 C17.2748298,52.6443989 17.4218936,52.6873404 17.5691011,52.7183617 C18.045766,53.4408989 18.8607926,53.8898457 19.7480585,53.8898457 L52.572734,53.8898457 C53.6080691,53.8898457 54.5431596,53.2781809 54.9613723,52.3301649 C55.0369149,52.1583989 55.0930691,51.9811755 55.1294043,51.8016543 C55.8664468,51.3287234 56.3286064,50.5060851 56.3286064,49.6047447 L56.3286064,44.6766702 L58.0439681,44.6766702 C65.6450426,44.6766702 71.8062128,38.5169362 71.8062128,30.9152872 C71.8062128,23.3159362 65.6448989,17.1544787 58.0438245,17.1544787 L58.0438245,17.1544787 Z M52.2230266,27.2481702 L36.2801011,40.8840319 L19.6794096,27.2481702 L52.2230266,27.2481702 L52.2230266,27.2481702 Z M18.0912926,50.1588191 L18.0912926,44.6768138 L18.0912926,28.4980691 L29.5457553,37.9092926 L23.2165532,44.6768138 L18.0912926,50.1588191 L18.0912926,50.1588191 Z M19.7479149,51.2780266 L25.9256011,44.6768138 L31.0792979,39.1663723 L35.6662819,42.9377553 L36.3086809,43.4622447 L36.9371489,42.9246862 L41.4171383,39.0902553 L46.5301915,44.6769574 L52.572734,51.2781702 L19.7479149,51.2781702 L19.7479149,51.2780266 Z M53.7172181,49.6048883 L49.2080745,44.6768138 L42.9205213,37.8045957 L53.7172181,28.5667181 L53.7172181,44.6768138 L53.7172181,49.6048883 L53.7172181,49.6048883 Z" id="Shape"></path>
                        </g>
                    </g>
                </g>
            </g>
        </g>
    </g>
</svg>