<?xml version="1.0" encoding="UTF-8" standalone="no"?>
<svg width="54px" height="54px" viewBox="0 0 54 54" version="1.1" xmlns="http://www.w3.org/2000/svg" xmlns:xlink="http://www.w3.org/1999/xlink">
    <!-- Generator: Sketch 3.8 (29681) - http://www.bohemiancoding.com/sketch -->
    <title>1469056295_seo_emailer</title>
    <desc>Created with Sketch.</desc>
    <defs></defs>
    <g id="Page-1" stroke="none" stroke-width="1" fill="none" fill-rule="evenodd">
        <g id="1469056295_seo_emailer" fill="#38359C">
            <g id="Icons">
                <g id="emailer_2_">
                    <rect id="Rectangle-path" x="23" y="10" width="14" height="1"></rect>
                    <rect id="Rectangle-path" x="23" y="14" width="20" height="1"></rect>
                    <rect id="Rectangle-path" x="11" y="26" width="32" height="1"></rect>
                    <rect id="Rectangle-path" x="11" y="22" width="32" height="1"></rect>
                    <rect id="Rectangle-path" x="11" y="18" width="32" height="1"></rect>
                    <rect id="Rectangle-path" x="23" y="6" width="14" height="1"></rect>
                    <path d="M49,18.61 L49,11 L38,0 L5,0 L5,18.74 L0,23 L0,31.891 L0,54 L54,54 L54,34.05 L54,23 L49,18.61 L49,18.61 Z M39,2.414 L46.586,10 L39,10 L39,2.414 L39,2.414 Z M2.811,53 L25.306,34.67 C25.741,34.316 26.358,34.113 27,34.113 C27.642,34.113 28.26,34.316 28.694,34.67 L51.189,53 L2.811,53 L2.811,53 Z M53,23.556 L32.319,35.045 L33.154,35.725 L53,24.699 L53,34.041 L53,53.186 L29.326,33.895 C28.686,33.374 27.844,33.114 27,33.114 C26.156,33.114 25.313,33.375 24.674,33.895 L1,53.186 L1,31.864 L1,24.699 L20.846,35.724 L21.68,35.044 L1,23.556 L1,23.462 L5,20.055 L5,24.779 L6,25.335 L6,1 L37.586,1 L38,1 L38,11 L48,11 L48,25.333 L49,24.777 L49,20.054 L53,23.461 L53,23.556 L53,23.556 Z" id="Shape"></path>
                    <path d="M20,6 L11,6 L11,15 L20,15 L20,6 L20,6 Z M19,14 L12,14 L12,7 L19,7 L19,14 L19,14 Z" id="Shape"></path>
                </g>
            </g>
        </g>
    </g>
</svg>