<?xml version="1.0" encoding="UTF-8" standalone="no"?>
<svg width="87px" height="89px" viewBox="0 0 87 89" version="1.1" xmlns="http://www.w3.org/2000/svg" xmlns:xlink="http://www.w3.org/1999/xlink">
    <!-- Generator: Sketch 39.1 (31720) - http://www.bohemiancoding.com/sketch -->
    <title>Group 2</title>
    <desc>Created with Sketch.</desc>
    <defs></defs>
    <g id="Page-1" stroke="none" stroke-width="1" fill="none" fill-rule="evenodd">
        <g id="Group-2">
            <g id="ReSec-NEW-LOGO">
                <g id="Layer_1">
                    <g id="Group">
                        <g id="Shape">
                            <path d="M52.688,40.839 C52.688,35.959 48.727,32 43.844,32 C38.964,32 35,35.959 35,40.839 C35,44.464 37.187,47.579 40.306,48.94 L37.728,58.329 C37.273,59.751 38.337,60.863 39.837,60.863 L47.855,60.863 C49.358,60.863 50.421,59.751 49.961,58.329 L47.391,48.94 C50.504,47.58 52.688,44.464 52.688,40.839 Z" fill="#8B91A2"></path>
                            <path d="M86.960715,14.3410386 C87.018715,12.3820386 86.963715,7.66103865 86.906715,4.18003865 C86.865715,1.85903865 84.982715,0.00103864731 82.664715,0.00103864731 C74.737715,3.86473148e-05 57.728715,-0.00396135269 51.589715,0.0150386473 C43.769715,0.0400386473 35.891715,0.0420386473 28.229715,1.62903865 C20.577715,3.22403865 13.065715,6.51003865 7.68571497,12.1920386 C1.80571497,18.3980386 -1.11228503,27.4190386 0.390714973,35.8330386 C0.757714973,37.8930386 1.39571497,39.9010386 2.26971497,41.8100386 C4.96571497,47.6900386 9.87071497,52.5540386 15.917715,54.8180386 C16.458715,55.0210386 17.136715,55.1850386 17.555715,54.7780386 C18.100715,54.2730386 17.715715,53.3640386 17.339715,52.7270386 C14.211715,47.4340386 13.420715,40.8090386 15.193715,34.9280386 C16.971715,29.0390386 21.295715,23.9700386 26.825715,21.2980386 C32.800715,18.3880386 39.493715,18.3120386 46.136715,18.2910386 L83.079715,18.1330386 C85.180715,18.1270386 86.900715,16.4480386 86.960715,14.3410386 Z" fill="#8E3089"></path>
                            <path d="M86.960715,47.3410386 C87.018715,45.3820386 86.963715,40.6610386 86.906715,37.1800386 C86.865715,34.8590386 84.982715,33.0010386 82.664715,33.0010386 C74.737715,33.0000386 57.728715,32.9960386 51.589715,33.0150386 C43.769715,33.0400386 35.891715,33.0420386 28.229715,34.6290386 C20.577715,36.2240386 13.065715,39.5100386 7.68571497,45.1920386 C1.80571497,51.3980386 -1.11228503,60.4190386 0.390714973,68.8330386 C0.757714973,70.8930386 1.39571497,72.9010386 2.26971497,74.8100386 C4.96571497,80.6900386 9.87071497,85.5540386 15.917715,87.8180386 C16.458715,88.0210386 17.136715,88.1850386 17.555715,87.7780386 C18.100715,87.2730386 17.715715,86.3640386 17.339715,85.7270386 C14.211715,80.4340386 13.420715,73.8090386 15.193715,67.9280386 C16.971715,62.0390386 21.295715,56.9700386 26.825715,54.2980386 C28.3691955,53.5463184 29.9605887,52.9837134 31.5866558,52.5623187 C36.2552914,51.3524437 41.2097553,51.3066139 46.136715,51.2910386 L83.079715,51.1330386 C85.180715,51.1270386 86.900715,49.4480386 86.960715,47.3410386 Z" fill="#8E3089" transform="translate(43.492701, 60.514543) scale(-1, -1) translate(-43.492701, -60.514543) "></path>
                        </g>
                    </g>
                </g>
            </g>
        </g>
    </g>
</svg>