<?xml version="1.0" encoding="UTF-8" standalone="no"?>
<svg width="64px" height="54px" viewBox="0 0 64 54" version="1.1" xmlns="http://www.w3.org/2000/svg" xmlns:xlink="http://www.w3.org/1999/xlink">
    <!-- Generator: Sketch 3.8 (29681) - http://www.bohemiancoding.com/sketch -->
    <title>1469064004_vector_66_09</title>
    <desc>Created with Sketch.</desc>
    <defs></defs>
    <g id="Page-1" stroke="none" stroke-width="1" fill="none" fill-rule="evenodd">
        <g id="1469063902_web" fill="#38359C">
            <g id="Layer_1">
                <g id="1469064004_vector_66_09">
                    <g id="Layer_1">
                        <g id="Group">
                            <g id="Shape">
                                <g transform="translate(31.764706, 26.682353)">
                                    <path d="M19.8332471,25.1528824 L19.8332471,22.8378706 C19.8332471,22.7104941 19.7849647,22.5812118 19.6842706,22.4821059 C19.5858,22.3839529 19.4577882,22.3344 19.3272353,22.3344 L12.4371529,22.3344 C12.3078706,22.3344 12.1773176,22.3839529 12.0801176,22.4821059 C11.9819647,22.5815294 11.9324118,22.7104941 11.9324118,22.8378706 L11.9324118,25.1528824 L9.2286,26.6474118 C9.20191765,26.6617059 9.17904706,26.6829882 9.16157647,26.7118941 C9.14537647,26.7404824 9.13743529,26.7716118 9.13743529,26.8014706 L9.13743529,27.1311882 C9.13743529,27.1756588 9.15490588,27.2204471 9.18825882,27.2547529 C9.22383529,27.2900118 9.26894118,27.3074824 9.31404706,27.3074824 L22.4512941,27.3074824 C22.4967176,27.3074824 22.5415059,27.2900118 22.5764471,27.2547529 C22.6107529,27.2207647 22.6282235,27.1756588 22.6282235,27.1311882 L22.6282235,26.8014706 C22.6282235,26.7712941 22.6190118,26.7404824 22.6028118,26.7118941 C22.5866118,26.6829882 22.5646941,26.6617059 22.5370588,26.6474118 L19.8332471,25.1528824 L19.8332471,25.1528824 Z"></path>
                                    <path d="M31.4137059,0.668647059 C31.1792824,0.434858824 30.8743412,0.317011765 30.5671765,0.317011765 L1.19721176,0.317011765 C0.890047059,0.317011765 0.585105882,0.434858824 0.350682353,0.668647059 C0.117529412,0.903070588 0.000635294118,1.20896471 0.000635294118,1.51517647 L0.000635294118,20.5266706 C0.000635294118,20.8338353 0.117211765,21.1400471 0.350682353,21.3732 C0.585105882,21.6076235 0.890047059,21.7242 1.19721176,21.7242 L30.5671765,21.7242 C30.8743412,21.7242 31.1792824,21.6076235 31.4137059,21.3732 C31.6481294,21.1400471 31.7647059,20.8338353 31.7647059,20.5266706 L31.7647059,1.51517647 C31.7647059,1.20928235 31.6481294,0.903388235 31.4137059,0.668647059 L31.4137059,0.668647059 Z M15.8820353,21.2172353 C15.5885294,21.2172353 15.3518824,20.9799529 15.3518824,20.6877176 C15.3518824,20.3948471 15.5885294,20.1582 15.8820353,20.1582 C16.173,20.1582 16.4121882,20.3948471 16.4121882,20.6877176 C16.4121882,20.9799529 16.173,21.2172353 15.8820353,21.2172353 L15.8820353,21.2172353 Z M29.6930118,19.6534588 L2.07137647,19.6534588 L2.07137647,2.38934118 L29.6930118,2.38934118 L29.6930118,19.6534588 L29.6930118,19.6534588 Z"></path>
                                </g>
                                <g>
                                    <path d="M19.8326118,24.8454 L19.8326118,22.5307059 C19.8326118,22.4020588 19.7843294,22.2737294 19.6849059,22.1743059 C19.5867529,22.0761529 19.4574706,22.0266 19.3278706,22.0266 L12.4362,22.0266 C12.3069176,22.0266 12.1785882,22.0761529 12.0791647,22.1743059 C11.9797412,22.2737294 11.9324118,22.4017412 11.9324118,22.5307059 L11.9324118,24.8454 L9.22764706,26.3392941 C9.20128235,26.3542235 9.17809412,26.3761412 9.16189412,26.4040941 C9.14442353,26.433 9.13648235,26.4641294 9.13648235,26.4946235 L9.13648235,26.8233882 C9.13648235,26.8691294 9.15395294,26.9136 9.18857647,26.9482235 C9.2232,26.9822118 9.26830588,26.9996824 9.31436471,26.9996824 L22.4503412,26.9996824 C22.4954471,26.9996824 22.5405529,26.9825294 22.5751765,26.9482235 C22.6098,26.9136 22.6272706,26.8691294 22.6272706,26.8233882 L22.6272706,26.4946235 C22.6272706,26.4641294 22.6193294,26.433 22.6031294,26.4040941 C22.5869294,26.3764588 22.5627882,26.3545412 22.5351529,26.3392941 L19.8326118,24.8454 L19.8326118,24.8454 Z"></path>
                                    <path d="M31.4140235,0.361482353 C31.1808706,0.127694118 30.8746588,0.0104823529 30.5674941,0.0104823529 L1.19784706,0.0104823529 C0.890682353,0.0104823529 0.585741176,0.127694118 0.351317647,0.361482353 C0.116576471,0.595270588 0,0.9018 0,1.20801176 L0,20.2195059 C0,20.5266706 0.116576471,20.8328824 0.351,21.0669882 C0.585423529,21.3001412 0.890364706,21.4176706 1.19752941,21.4176706 L30.5674941,21.4176706 C30.8746588,21.4176706 31.1808706,21.3004588 31.4140235,21.0669882 C31.6484471,20.8325647 31.7650235,20.5263529 31.7650235,20.2195059 L31.7650235,1.20801176 C31.7653412,0.9018 31.6487647,0.595270588 31.4140235,0.361482353 L31.4140235,0.361482353 Z M15.8826706,20.9107059 C15.5891647,20.9107059 15.3525176,20.6734235 15.3525176,20.3805529 C15.3525176,20.0883176 15.5891647,19.8510353 15.8826706,19.8510353 C16.1736353,19.8510353 16.4115529,20.0883176 16.4115529,20.3805529 C16.4115529,20.6734235 16.1736353,20.9107059 15.8826706,20.9107059 L15.8826706,20.9107059 Z M29.6923765,19.3462941 L2.07201176,19.3462941 L2.07201176,2.08249412 L29.6923765,2.08249412 L29.6923765,19.3462941 L29.6923765,19.3462941 Z"></path>
                                </g>
                            </g>
                            <g transform="translate(12.705882, 7.941176)" id="Shape">
                                <g transform="translate(23.823529, 0.000000)">
                                    <g transform="translate(10.800000, 0.000000)">
                                        <path d="M3.37785882,12.7586118 C3.37785882,13.6064118 2.68951765,14.2934824 1.84203529,14.2934824 C0.992964706,14.2934824 0.307164706,13.6064118 0.307164706,12.7586118 C0.307164706,11.9111294 0.992964706,11.2237412 1.84203529,11.2237412 C2.68951765,11.2237412 3.37785882,11.9111294 3.37785882,12.7586118 L3.37785882,12.7586118 Z"></path>
                                        <path d="M3.37785882,1.65271765 C3.37785882,2.50051765 2.68951765,3.18790588 1.84203529,3.18790588 C0.992964706,3.18790588 0.307164706,2.50051765 0.307164706,1.65271765 C0.307164706,0.803964706 0.992964706,0.117529412 1.84203529,0.117529412 C2.68951765,0.117529412 3.37785882,0.803964706 3.37785882,1.65271765 L3.37785882,1.65271765 Z"></path>
                                        <path d="M3.37785882,7.20518824 C3.37785882,8.05330588 2.68951765,8.74069412 1.84203529,8.74069412 C0.992964706,8.74069412 0.307164706,8.05330588 0.307164706,7.20518824 C0.307164706,6.35802353 0.992964706,5.67 1.84203529,5.67 C2.68951765,5.67031765 3.37785882,6.35802353 3.37785882,7.20518824 L3.37785882,7.20518824 Z"></path>
                                    </g>
                                    <path d="M1.53487059,3.18790588 C0.6858,3.18790588 0,2.50051765 0,1.65271765 C0,0.803964706 0.6858,0.117529412 1.53487059,0.117529412 C2.38362353,0.117529412 3.06974118,0.803964706 3.06974118,1.65271765 C3.06974118,2.50051765 2.38362353,3.18790588 1.53487059,3.18790588 L1.53487059,3.18790588 Z"></path>
                                    <path d="M7.08892941,3.18790588 C6.24112941,3.18790588 5.55278824,2.50051765 5.55278824,1.65271765 C5.55278824,0.803964706 6.24112941,0.117529412 7.08892941,0.117529412 C7.93545882,0.117529412 8.6238,0.803964706 8.6238,1.65271765 C8.6238,2.50051765 7.93545882,3.18790588 7.08892941,3.18790588 L7.08892941,3.18790588 Z"></path>
                                </g>
                                <g transform="translate(0.000000, 23.505882)">
                                    <g>
                                        <path d="M0.117529412,1.85315294 C0.117529412,1.00535294 0.8046,0.317011765 1.6524,0.317011765 C2.50115294,0.317011765 3.18822353,1.00535294 3.18822353,1.85315294 C3.18822353,2.70158824 2.50115294,3.38802353 1.6524,3.38802353 C0.8046,3.38802353 0.117529412,2.70158824 0.117529412,1.85315294 L0.117529412,1.85315294 Z"></path>
                                        <path d="M0.117529412,12.9590471 C0.117529412,12.1112471 0.8046,11.4241765 1.6524,11.4241765 C2.50115294,11.4241765 3.18822353,12.1112471 3.18822353,12.9590471 C3.18822353,13.8078 2.50115294,14.4939176 1.6524,14.4939176 C0.8046,14.4939176 0.117529412,13.8078 0.117529412,12.9590471 L0.117529412,12.9590471 Z"></path>
                                        <path d="M0.117529412,7.40594118 C0.117529412,6.55814118 0.8046,5.87107059 1.6524,5.87107059 C2.50115294,5.87107059 3.18822353,6.55814118 3.18822353,7.40594118 C3.18822353,8.25374118 2.50115294,8.94144706 1.6524,8.94144706 C0.8046,8.94144706 0.117529412,8.25374118 0.117529412,7.40594118 L0.117529412,7.40594118 Z"></path>
                                    </g>
                                    <path d="M12.7592471,11.4241765 C13.6070471,11.4241765 14.2941176,12.1112471 14.2941176,12.9590471 C14.2941176,13.8078 13.6070471,14.4939176 12.7592471,14.4939176 C11.9114471,14.4939176 11.2243765,13.8078 11.2243765,12.9590471 C11.2243765,12.1112471 11.9114471,11.4241765 12.7592471,11.4241765 L12.7592471,11.4241765 Z"></path>
                                    <path d="M7.20645882,11.4241765 C8.05425882,11.4241765 8.74132941,12.1112471 8.74132941,12.9590471 C8.74132941,13.8078 8.05425882,14.4939176 7.20645882,14.4939176 C6.35770588,14.4939176 5.67158824,13.8078 5.67158824,12.9590471 C5.67127059,12.1112471 6.35738824,11.4241765 7.20645882,11.4241765 L7.20645882,11.4241765 Z"></path>
                                </g>
                            </g>
                        </g>
                    </g>
                </g>
            </g>
        </g>
    </g>
</svg>