<?xml version="1.0" encoding="UTF-8"?>
<svg width="64px" height="80px" viewBox="0 0 64 80" version="1.1" xmlns="http://www.w3.org/2000/svg" xmlns:xlink="http://www.w3.org/1999/xlink">
    <!-- Generator: Sketch 40 (33762) - http://www.bohemiancoding.com/sketch -->
    <title>Group 2</title>
    <desc>Created with Sketch.</desc>
    <defs></defs>
    <g id="Page-1" stroke="none" stroke-width="1" fill="none" fill-rule="evenodd">
        <g id="Group-2" transform="translate(0.000000, 3.000000)">
            <g id="Group" transform="translate(0.000000, 13.000000)">
                <path d="M49,16.842 L49,58.947 C49,61.738 46.73,64 43.931,64 L5.069,64 C2.269,64 0,61.738 0,58.947 L0,5.053 C0,2.262 2.269,0 5.069,0 L32.103,0 L49,16.842 L49,16.842 Z" id="Shape" fill="#CB0606"></path>
                <path d="M49,15.899 L49,17.995 L35.187,17.995 C32.327,17.995 31.008,15.675 31.008,12.814 L31.008,0 L33.1,0 L49,15.899 L49,15.899 Z" id="Shape" fill="#FB8D8D"></path>
                <path d="M37.606,34.047 C37.17,33.903 36.75,33.83 36.345,33.83 C35.885,33.83 35.569,33.925 35.396,34.115 C35.224,34.305 35.138,34.641 35.138,35.124 L35.138,36.047 L37.071,36.047 L37.071,37.901 L35.138,37.901 L35.138,45.536 L32.796,45.536 L32.796,37.901 L31.589,37.901 L31.589,36.047 L32.796,36.047 L32.796,35.124 C32.796,33.948 33.088,33.098 33.672,32.573 C34.256,32.048 35.134,31.786 36.308,31.786 C36.859,31.786 37.443,31.861 38.06,32.012 L37.606,34.047 L37.606,34.047 Z M27.796,44.613 C27.36,44.981 26.9,45.274 26.416,45.491 C25.932,45.708 25.382,45.816 24.765,45.816 C23.567,45.816 22.65,45.385 22.015,44.523 C21.379,43.66 21.062,42.442 21.062,40.868 C21.062,39.258 21.411,38.007 22.11,37.114 C22.809,36.222 23.79,35.775 25.055,35.775 C25.503,35.775 25.962,35.867 26.434,36.051 C26.906,36.235 27.297,36.469 27.605,36.752 L27.605,32.066 L29.947,32.066 L29.947,45.536 L27.796,45.536 L27.796,44.613 L27.796,44.613 Z M27.605,38.679 C27.357,38.456 27.05,38.258 26.684,38.086 C26.318,37.915 25.944,37.829 25.563,37.829 C24.934,37.829 24.429,38.099 24.048,38.638 C23.666,39.178 23.476,39.909 23.476,40.832 C23.476,41.743 23.632,42.457 23.943,42.976 C24.255,43.495 24.737,43.754 25.391,43.754 C25.778,43.754 26.173,43.665 26.575,43.487 C26.977,43.309 27.321,43.09 27.605,42.831 L27.605,38.679 L27.605,38.679 Z M17.595,45.201 C17.02,45.611 16.334,45.816 15.535,45.816 C14.482,45.816 13.584,45.488 12.84,44.83 L12.84,49.109 L10.498,49.109 L10.498,36.047 L12.658,36.047 L12.658,36.978 C13.094,36.604 13.552,36.31 14.033,36.096 C14.514,35.882 15.066,35.775 15.689,35.775 C16.893,35.775 17.81,36.197 18.439,37.042 C19.068,37.886 19.383,39.113 19.383,40.723 C19.383,41.743 19.229,42.641 18.92,43.419 C18.611,44.197 18.17,44.791 17.595,45.201 L17.595,45.201 Z M16.488,38.602 C16.167,38.086 15.689,37.829 15.054,37.829 C14.673,37.829 14.281,37.918 13.879,38.095 C13.476,38.273 13.13,38.492 12.84,38.751 L12.84,42.903 C13.088,43.127 13.395,43.324 13.761,43.496 C14.127,43.668 14.503,43.754 14.891,43.754 C15.532,43.754 16.039,43.481 16.411,42.935 C16.783,42.389 16.969,41.664 16.969,40.76 C16.969,39.837 16.808,39.118 16.488,38.602 L16.488,38.602 Z" id="Shape" fill="#FFFFFF"></path>
            </g>
            <circle id="Oval" stroke="#495CA5" stroke-width="5" fill="#FFFFFF" cx="43" cy="18" r="18"></circle>
            <text id="10" font-family="AdventPro-Regular, Advent Pro" font-size="20" font-weight="normal" fill="#134B94">
                <tspan x="35" y="23">10</tspan>
            </text>
        </g>
    </g>
</svg>