<?xml version="1.0" encoding="UTF-8" standalone="no"?>
<svg width="54px" height="54px" viewBox="0 0 54 54" version="1.1" xmlns="http://www.w3.org/2000/svg" xmlns:xlink="http://www.w3.org/1999/xlink">
    <!-- Generator: Sketch 3.8 (29681) - http://www.bohemiancoding.com/sketch -->
    <title>Shape</title>
    <desc>Created with Sketch.</desc>
    <defs></defs>
    <g id="Page-1" stroke="none" stroke-width="1" fill="none" fill-rule="evenodd">
        <g id="1469063902_web" fill="#38359C">
            <g id="Layer_1">
                <path d="M26.9981016,0 C12.0898828,0 0.0002109375,12.0859805 0.0002109375,26.9981016 C0.0002109375,41.9124375 12.0898828,54 26.9981016,54 C41.9144414,54 53.9998945,41.9124375 53.9998945,26.9981016 C53.9998945,12.0859805 41.9144414,0 26.9981016,0 L26.9981016,0 Z M25.0976602,15.0583008 C22.4296172,14.8916602 19.8955195,14.3764453 17.5725703,13.5723516 C19.4405273,9.76935938 22.0597383,6.68102344 25.0976602,4.66635938 L25.0976602,15.0583008 L25.0976602,15.0583008 Z M25.0976602,18.8720508 L25.0976602,25.0956563 L14.5957148,25.0956563 C14.76225,22.2655078 15.2982422,19.576582 16.1227969,17.099332 C18.9045352,18.0841992 21.9261094,18.6930703 25.0976602,18.8720508 L25.0976602,18.8720508 Z M25.0976602,28.9009688 L25.0976602,35.061082 C21.9096562,35.2418555 18.8761641,35.8589531 16.0820859,36.8540508 C15.2697656,34.3846055 14.7501211,31.7131875 14.5957148,28.9009688 L25.0976602,28.9009688 L25.0976602,28.9009688 Z M25.0976602,38.876625 L25.0976602,49.414957 C22.023457,47.3780391 19.3838906,44.2468828 17.5115039,40.3914727 C19.8508008,39.5710312 22.4051484,39.0474844 25.0976602,38.876625 L25.0976602,38.876625 Z M28.9027617,38.876625 C31.5952734,39.0473789 34.1496211,39.5710312 36.4888125,40.3914727 C34.6167422,44.2468828 31.9732734,47.3827852 28.9027617,49.4189648 L28.9027617,38.876625 L28.9027617,38.876625 Z M28.9027617,35.0611875 L28.9027617,28.9010742 L39.4044961,28.9010742 C39.2499844,31.713293 38.7302344,34.3847109 37.9182305,36.8541563 C35.1283711,35.8590586 32.0906602,35.2419609 28.9027617,35.0611875 L28.9027617,35.0611875 Z M28.9027617,25.0956563 L28.9027617,18.8720508 C32.0704102,18.6930703 35.0957812,18.0841992 37.8777305,17.099332 C38.7018633,19.576582 39.2337422,22.2655078 39.4004883,25.0956563 L28.9027617,25.0956563 L28.9027617,25.0956563 Z M28.9027617,15.0583008 L28.9027617,4.66635938 C31.9445859,6.68102344 34.5597891,9.76935938 36.4278516,13.5681328 C34.1049023,14.3722266 31.5711211,14.8916602 28.9027617,15.0583008 L28.9027617,15.0583008 Z M35.5225078,5.43607031 C38.2959141,6.53663672 40.8096562,8.15516016 42.941707,10.1771016 C42.0117891,10.8638086 41.0047734,11.4973594 39.9324727,12.0611953 C38.7385664,9.58826953 37.2525117,7.35718359 35.5225078,5.43607031 L35.5225078,5.43607031 Z M14.0637305,12.0611953 C12.9915352,11.4973594 11.9884219,10.8638086 11.058293,10.1771016 C13.1902383,8.15516016 15.7001836,6.53262891 18.4739062,5.43607031 C16.7480156,7.35718359 15.2616445,9.58826953 14.0637305,12.0611953 L14.0637305,12.0611953 Z M12.6180703,15.5881758 C11.6029336,18.5424609 10.9731797,21.7452305 10.7943047,25.0956563 L3.89116406,25.0956563 C4.25629688,20.5858125 5.9214375,16.4309766 8.50826953,13.0161094 C9.77094141,13.9761914 11.1437227,14.84325 12.6180703,15.5881758 L12.6180703,15.5881758 Z M10.7867109,28.9009688 C10.9571484,32.2326211 11.5785703,35.4251602 12.5735625,38.3647852 C11.1073359,39.1159336 9.7385625,39.9808828 8.47979297,40.9434961 C5.90498438,37.5321094 4.25629688,33.3984727 3.89116406,28.9008633 L10.7867109,28.9008633 L10.7867109,28.9009688 Z M14.0107852,41.9060039 C15.1885547,44.3670117 16.6546758,46.5965156 18.3604219,48.5217422 C15.6151758,47.4108398 13.1296992,45.7970625 11.0220117,43.7859844 C11.9438086,43.1040234 12.9386953,42.4685742 14.0107852,41.9060039 L14.0107852,41.9060039 Z M39.9893203,41.9060039 C41.0575078,42.4685742 42.0560859,43.1040234 42.9741914,43.7883047 C40.8708281,45.7970625 38.3851406,47.4108398 35.6401055,48.5173125 C37.3456406,46.5965156 38.8115508,44.3672227 39.9893203,41.9060039 L39.9893203,41.9060039 Z M41.4271758,38.3648906 C42.4218516,35.4252656 43.0388437,32.2367344 43.2136055,28.9010742 L50.1094687,28.9010742 C49.7437031,33.3986836 48.0951211,37.5323203 45.520418,40.943707 C44.261543,39.9808828 42.8890781,39.1158281 41.4271758,38.3648906 L41.4271758,38.3648906 Z M43.2055898,25.0956563 C43.0269258,21.7453359 42.3976992,18.5424609 41.3864648,15.5881758 C42.8564883,14.84325 44.2291641,13.9760859 45.4878281,13.0160039 C48.0790898,16.4308711 49.7401172,20.5816992 50.1094687,25.0955508 L43.2055898,25.0955508 L43.2055898,25.0956563 Z" id="Shape"></path>
            </g>
        </g>
    </g>
</svg>