<?xml version="1.0" encoding="UTF-8"?>
<svg width="452px" height="106px" viewBox="0 0 452 106" version="1.1" xmlns="http://www.w3.org/2000/svg" xmlns:xlink="http://www.w3.org/1999/xlink">
    <!-- Generator: Sketch 40 (33762) - http://www.bohemiancoding.com/sketch -->
    <title>ReSec NEW LOGO</title>
    <desc>Created with Sketch.</desc>
    <defs></defs>
    <g id="Page-1" stroke="none" stroke-width="1" fill="none" fill-rule="evenodd">
        <g id="ReSec-NEW-LOGO" fill="#FFFFFF">
            <g id="Layer_1">
                <g id="Group">
                    <g id="Shape">
                        <path d="M224.31,55.966 C227.423,54.606 229.607,51.49 229.607,47.865 C229.607,42.985 225.646,39.026 220.763,39.026 C215.883,39.026 211.919,42.985 211.919,47.865 C211.919,51.49 214.106,54.605 217.225,55.966 L214.647,65.355 C214.192,66.777 215.256,67.889 216.756,67.889 L224.774,67.889 C226.277,67.889 227.34,66.777 226.88,65.355 L224.31,55.966 L224.31,55.966 Z"></path>
                        <path d="M431.578,71.493 C431.769,70.229 432.281,68.827 433.108,68.199 C433.924,67.563 434.824,66.782 435.788,66.782 L447.535,66.782 C448.604,66.782 449.547,67.612 450.369,68.339 C451.193,69.064 451.551,70.238 451.457,71.402 C451.169,75.372 450.172,79.452 448.486,83.419 C446.787,87.386 444.199,91.024 440.716,94.216 C437.237,97.402 432.841,100.038 427.517,102.075 C422.195,104.104 415.769,105.132 408.217,105.132 C401.546,105.132 395.646,104.152 390.524,102.165 C385.396,100.188 381.044,97.436 377.464,93.905 C373.888,90.376 371.106,86.141 369.126,81.21 C367.136,76.277 365.953,70.912 365.571,65.108 C365.372,61.434 365.28,57.368 365.28,52.919 C365.28,48.473 365.372,44.414 365.571,40.732 C365.953,34.931 367.135,29.564 369.126,24.627 C371.105,19.699 373.888,15.466 377.464,11.936 C381.043,8.41 385.396,5.651 390.524,3.666 C395.646,1.686 401.546,0.693 408.217,0.693 C415.769,0.693 422.195,1.709 427.517,3.738 C432.841,5.772 437.237,8.38 440.716,11.574 C444.198,14.766 446.786,18.368 448.486,22.379 C450.172,26.397 451.169,30.342 451.457,34.207 C451.551,35.365 451.193,36.27 450.369,36.997 C449.547,37.722 448.604,38.042 447.535,38.042 L435.788,38.042 C434.824,38.042 433.9,37.771 433.03,37.14 C432.163,36.513 431.63,35.592 431.435,34.327 C431.142,32.397 430.46,30.52 429.405,28.683 C428.339,26.846 426.886,25.207 425.052,23.753 C423.216,22.304 420.889,21.127 418.088,20.203 C415.278,19.285 411.993,18.825 408.217,18.825 C404.449,18.825 401.158,19.407 398.355,20.569 C395.549,21.727 393.209,23.279 391.321,25.211 C389.435,27.148 387.987,29.469 386.968,32.17 C385.95,34.882 385.347,37.735 385.161,40.732 C384.959,44.414 384.867,48.472 384.867,52.919 C384.867,57.368 384.959,61.435 385.161,65.108 C385.347,68.203 385.95,71.082 386.968,73.737 C387.987,76.398 389.435,78.698 391.321,80.634 C393.209,82.572 395.55,84.114 398.355,85.273 C401.159,86.433 404.45,87.011 408.217,87.011 C411.993,87.011 415.279,86.56 418.088,85.638 C420.889,84.72 423.234,83.538 425.128,82.081 C427.01,80.634 428.483,78.983 429.553,77.146 C430.611,75.311 431.293,73.426 431.578,71.493"></path>
                        <path d="M180.637,85.49 C178.583,85.49 176.896,87.123 176.831,89.181 C176.769,91.093 176.809,95.702 176.853,99.101 C176.885,101.367 178.722,103.187 180.987,103.193 C188.735,103.218 205.361,103.273 211.361,103.273 C219.005,103.273 226.704,103.294 234.199,101.767 C241.683,100.232 249.036,97.046 254.312,91.515 C260.078,85.474 262.957,76.675 261.513,68.455 C261.16,66.443 260.543,64.48 259.695,62.614 C257.078,56.865 252.298,52.101 246.394,49.874 C245.866,49.675 245.204,49.513 244.793,49.906 C244.258,50.399 244.632,51.288 244.998,51.91 C248.039,57.089 248.793,63.559 247.042,69.296 C245.286,75.04 241.045,79.976 235.631,82.568 C229.782,85.39 223.24,85.445 216.747,85.445 L180.637,85.49 L180.637,85.49 Z"></path>
                        <path d="M351.985,86.951 C351.212,86.17 350.188,85.578 349.122,85.578 L301.297,85.578 L301.297,60.149 L344.773,60.149 C345.836,60.149 346.828,60.098 347.604,59.322 C348.372,58.55 348.832,57.963 348.832,56.896 L348.832,46.599 C348.832,45.533 348.372,44.507 347.604,43.731 C346.828,42.956 345.836,42.46 344.773,42.46 L323.979,42.46 L301.297,42.46 L301.297,18.14 L323.736,18.14 L348.101,18.14 C349.164,18.14 350.145,18.303 350.926,17.525 C351.696,16.752 352.152,16.379 352.152,15.311 L352.152,5.013 C352.152,3.949 351.696,2.709 350.926,1.931 C350.145,1.162 349.164,0.453 348.101,0.453 L285.574,0.453 C284.505,0.453 284.014,1.162 283.239,1.931 C282.467,2.708 282.501,3.948 282.501,5.013 L282.501,18.711 L282.501,43.033 L282.501,100.226 C282.501,101.287 282.394,101.763 283.172,102.54 C283.943,103.319 284.373,103.265 285.435,103.265 L349.123,103.265 C350.189,103.265 351.213,103.32 351.986,102.54 C352.761,101.763 353.257,101.286 353.257,100.226 L353.257,89.921 C353.256,88.863 352.761,87.721 351.985,86.951"></path>
                        <path d="M77.902,99.338 C77.902,99.338 56.009,61.838 56.047,61.83 C62.297,59.409 67.834,55.732 71.067,50.774 C74.304,45.795 77.031,41.658 77.031,33.086 C77.031,23.123 73.887,14.99 67.6,9.378 C61.312,3.77 52.127,0.454 40.037,0.454 L3.71,0.454 C2.646,0.454 2.13,1.352 1.359,2.126 C0.583,2.9 0.599,4.332 0.599,5.394 L0.599,68.458 L0.599,100.227 C0.599,101.288 0.583,101.764 1.359,102.538 C2.13,103.321 2.646,103.267 3.71,103.267 L15.463,103.267 C16.526,103.267 17.448,103.322 18.227,102.538 C19.001,101.765 19.392,101.288 19.392,100.227 L19.392,76.198 L19.392,72.885 L19.392,51.875 L19.392,41.924 L19.392,17.53 L46.586,17.53 C54.315,18.07 59.364,24.572 59.364,32.459 C59.364,40.411 54.247,46.928 46.409,47.378 C46.123,47.404 37.763,47.447 33.43,47.432 C31.522,47.421 30.255,49.419 31.072,51.143 C31.072,51.143 55.251,97.256 56.255,99.375 C56.361,99.598 56.463,99.836 56.574,100.059 C56.961,100.834 57.613,101.409 58.534,102.325 C59.449,103.245 60.878,103.266 62.814,103.266 L75.146,103.266 C76.016,103.266 76.763,103.387 77.393,102.752 C78.02,102.131 78.338,101.67 78.338,100.799 C78.339,100.313 78.192,99.91 77.902,99.338 L77.902,99.338 Z"></path>
                        <path d="M163.076,86.957 C162.303,86.176 161.28,85.584 160.213,85.584 L112.388,85.584 L112.388,60.154 L155.864,60.154 C156.928,60.154 157.919,60.103 158.695,59.328 C159.463,58.555 159.923,57.967 159.923,56.9 L159.923,46.605 C159.923,45.539 159.463,44.512 158.695,43.736 C157.92,42.962 156.928,42.465 155.864,42.465 L135.07,42.465 L112.388,42.465 L112.388,18.145 L134.827,18.145 L159.192,18.145 C160.255,18.145 161.236,18.308 162.017,17.53 C162.787,16.756 163.242,16.383 163.242,15.316 L163.242,5.018 C163.242,3.954 162.787,2.714 162.017,1.936 C161.236,1.168 160.255,0.458 159.192,0.458 L96.665,0.458 C95.596,0.458 95.106,1.167 94.33,1.936 C93.557,2.714 93.592,3.954 93.592,5.018 L93.592,18.716 L93.592,43.038 L93.592,100.231 C93.592,101.294 93.484,101.77 94.262,102.547 C95.033,103.326 95.463,103.272 96.524,103.272 L160.212,103.272 C161.278,103.272 162.302,103.327 163.075,102.547 C163.851,101.77 164.346,101.293 164.346,100.231 L164.346,89.928 C164.347,88.869 163.852,87.727 163.076,86.957"></path>
                        <path d="M263.781,19.129 C265.882,19.123 267.602,17.444 267.662,15.337 C267.72,13.378 267.665,8.657 267.608,5.176 C267.567,2.855 265.684,0.997 263.366,0.997 C255.439,0.996 238.43,0.992 232.291,1.011 C224.471,1.036 216.593,1.038 208.931,2.625 C201.279,4.22 193.767,7.506 188.387,13.188 C182.507,19.394 179.589,28.415 181.092,36.829 C181.459,38.889 182.097,40.897 182.971,42.806 C185.667,48.686 190.572,53.55 196.619,55.814 C197.16,56.017 197.838,56.181 198.257,55.774 C198.802,55.269 198.417,54.36 198.041,53.723 C194.913,48.43 194.122,41.805 195.895,35.924 C197.673,30.035 201.997,24.966 207.527,22.294 C213.502,19.384 220.195,19.308 226.838,19.287 L263.781,19.129 L263.781,19.129 Z"></path>
                    </g>
                </g>
            </g>
        </g>
    </g>
</svg>