<?xml version="1.0" encoding="UTF-8"?>
<svg width="87px" height="89px" viewBox="0 0 87 89" version="1.1" xmlns="http://www.w3.org/2000/svg" xmlns:xlink="http://www.w3.org/1999/xlink">
    <!-- Generator: Sketch 40 (33762) - http://www.bohemiancoding.com/sketch -->
    <title>resecLogo</title>
    <desc>Created with Sketch.</desc>
    <defs></defs>
    <g id="Page-1" stroke="none" stroke-width="1" fill="none" fill-rule="evenodd">
        <g id="resecLogo">
            <g id="Group-2">
                <g id="Page-1">
                    <g id="Group-2">
                        <g id="ReSec-NEW-LOGO">
                            <g id="Layer_1">
                                <g id="Group">
                                    <g id="Shape">
                                        <path d="M43.844,32 C38.964,32 35,35.959 35,40.839 C35,44.464 37.187,47.579 40.306,48.94 L37.728,58.329 C37.273,59.751 38.337,60.863 39.837,60.863 L47.855,60.863 C49.358,60.863 50.421,59.751 49.961,58.329 L47.391,48.94 C50.504,47.58 52.688,44.464 52.688,40.839 C52.688,35.959 48.727,32 43.844,32 Z" fill="#FFE710"></path>
                                        <path d="M86.960715,14.3410386 C87.018715,12.3820386 86.963715,7.66103865 86.906715,4.18003865 C86.865715,1.85903865 84.982715,0.00103864731 82.664715,0.00103864731 C74.737715,3.86473148e-05 57.728715,-0.00396135269 51.589715,0.0150386473 C43.769715,0.0400386473 35.891715,0.0420386473 28.229715,1.62903865 C20.577715,3.22403865 13.065715,6.51003865 7.68571497,12.1920386 C1.80571497,18.3980386 -1.11228503,27.4190386 0.390714973,35.8330386 C0.757714973,37.8930386 1.39571497,39.9010386 2.26971497,41.8100386 C4.96571497,47.6900386 9.87071497,52.5540386 15.917715,54.8180386 C16.458715,55.0210386 17.136715,55.1850386 17.555715,54.7780386 C18.100715,54.2730386 17.715715,53.3640386 17.339715,52.7270386 C14.211715,47.4340386 13.420715,40.8090386 15.193715,34.9280386 C16.971715,29.0390386 21.295715,23.9700386 26.825715,21.2980386 C32.800715,18.3880386 39.493715,18.3120386 46.136715,18.2910386 L83.079715,18.1330386 C85.180715,18.1270386 86.900715,16.4480386 86.960715,14.3410386 L86.960715,14.3410386 Z" fill="#FFFFFF"></path>
                                        <path d="M86.9607147,47.3410385 C87.0187147,45.3820385 86.9637147,40.6610385 86.9067147,37.1800385 C86.8657147,34.8590385 84.9827147,33.0010385 82.6647147,33.0010385 C74.7377147,33.0000385 57.7287147,32.9960385 51.5897147,33.0150385 C43.7697147,33.0400385 35.8917147,33.0420385 28.2297147,34.6290385 C20.5777147,36.2240385 13.0657147,39.5100385 7.68571463,45.1920385 C1.80571463,51.3980385 -1.11228537,60.4190385 0.390714634,68.8330385 C0.757714634,70.8930385 1.39571463,72.9010385 2.26971463,74.8100385 C4.96571463,80.6900385 9.87071463,85.5540385 15.9177147,87.8180385 C16.4587147,88.0210385 17.1367147,88.1850385 17.5557147,87.7780385 C18.1007147,87.2730385 17.7157147,86.3640385 17.3397147,85.7270385 C14.2117147,80.4340385 13.4207147,73.8090385 15.1937147,67.9280385 C16.9717147,62.0390385 21.2957147,56.9700385 26.8257147,54.2980385 C28.3691952,53.5463183 29.9605884,52.9837133 31.5866555,52.5623186 C36.2552911,51.3524436 41.209755,51.3066138 46.1367147,51.2910385 L83.0797147,51.1330385 C85.1807147,51.1270385 86.9007147,49.4480385 86.9607147,47.3410385 L86.9607147,47.3410385 Z" fill="#FFFFFF" transform="translate(43.492701, 60.514543) scale(-1, -1) translate(-43.492701, -60.514543) "></path>
                                    </g>
                                </g>
                            </g>
                        </g>
                    </g>
                </g>
            </g>
        </g>
    </g>
</svg>