<?xml version="1.0" encoding="UTF-8"?>
<svg width="300px" height="270px" viewBox="0 0 300 270" version="1.1" xmlns="http://www.w3.org/2000/svg" xmlns:xlink="http://www.w3.org/1999/xlink">
    <!-- Generator: Sketch 40 (33762) - http://www.bohemiancoding.com/sketch -->
    <title>Shape</title>
    <desc>Created with Sketch.</desc>
    <defs></defs>
    <g id="Page-1" stroke="none" stroke-width="1" fill="none" fill-rule="evenodd">
        <path d="M0,165 L60,165 L60,105 L0,105 L0,165 L0,165 Z M240,0 L240,60 L300,60 L300,0 L240,0 L240,0 Z M240,165 L300,165 L300,105 L240,105 L240,165 L240,165 Z M240,270 L300,270 L300,210 L240,210 L240,270 L240,270 Z M135,37.5 L135,120 L90,120 L90,150 L135,150 L135,232.5 C135,243.75 138.75,255 150,255 L210,255 L210,225 L165,225 L165,150 L210,150 L210,120 L165,120 L165,45 L210,45 L210,15 L150,15 C138.75,15 135,26.25 135,37.5 L135,37.5 Z" id="Shape" fill="#15145F"></path>
    </g>
</svg>