<?xml version="1.0" encoding="UTF-8"?>
<svg width="18px" height="18px" viewBox="0 0 18 18" version="1.1" xmlns="http://www.w3.org/2000/svg" xmlns:xlink="http://www.w3.org/1999/xlink">
    <!-- Generator: Sketch 40 (33762) - http://www.bohemiancoding.com/sketch -->
    <title>Shape</title>
    <desc>Created with Sketch.</desc>
    <defs></defs>
    <g id="Page-1" stroke="none" stroke-width="1" fill="none" fill-rule="evenodd">
        <g id="RESEC_Dashboard_8" transform="translate(-29.000000, -104.000000)" fill="#23CCC7">
            <g id="RESEC_Dashboard_1_">
                <g id="left_nav_bar_1_">
                    <g id="selected_2_" transform="translate(0.000000, 88.000000)">
                        <g id="Shape_47" transform="translate(29.000000, 16.000000)">
                            <path d="M10,3 L13,3 L13,0 L10,0 L10,3 L10,3 Z M5,13 L8,13 L8,10 L5,10 L5,13 L5,13 Z M0,3 L3,3 L3,0 L0,0 L0,3 L0,3 Z M5,3 L8,3 L8,0 L5,0 L5,3 L5,3 Z M15,0 L15,3 L18,3 L18,0 L15,0 L15,0 Z M0,8 L3,8 L3,5 L0,5 L0,8 L0,8 Z M5,8 L8,8 L8,5 L5,5 L5,8 L5,8 Z M10,8 L13,8 L13,5 L10,5 L10,8 L10,8 Z M15,8 L18,8 L18,5 L15,5 L15,8 L15,8 Z M0,13 L3,13 L3,10 L0,10 L0,13 L0,13 Z M10,13 L13,13 L13,10 L10,10 L10,13 L10,13 Z M15,13 L18,13 L18,10 L15,10 L15,13 L15,13 Z M0,18 L3,18 L3,15 L0,15 L0,18 L0,18 Z M5,18 L8,18 L8,15 L5,15 L5,18 L5,18 Z M10,18 L13,18 L13,15 L10,15 L10,18 L10,18 Z M15,18 L18,18 L18,15 L15,15 L15,18 L15,18 Z" id="Shape"></path>
                        </g>
                    </g>
                </g>
            </g>
        </g>
    </g>
</svg>