<?xml version="1.0" encoding="utf-8"?>
<!-- Generator: Adobe Illustrator 16.0.0, SVG Export Plug-In . SVG Version: 6.00 Build 0)  -->
<!DOCTYPE svg PUBLIC "-//W3C//DTD SVG 1.1//EN" "http://www.w3.org/Graphics/SVG/1.1/DTD/svg11.dtd">
<svg version="1.1" id="Layer_1" xmlns="http://www.w3.org/2000/svg" xmlns:xlink="http://www.w3.org/1999/xlink" x="0px" y="0px"
	 width="218.571px" height="212.857px" viewBox="0 0 218.571 212.857" enable-background="new 0 0 218.571 212.857"
	 xml:space="preserve">
<path fill="#FFFFFF" d="M52.973,120.247l56.086,31.738c1.876,1.063,4.175,1.046,6.036-0.042l54.303-31.738
	c3.991-2.332,4.001-8.096,0.02-10.441l-54.305-31.995c-1.87-1.103-4.187-1.118-6.072-0.043l-56.085,31.995
	C48.875,112.049,48.885,117.935,52.973,120.247"/>
<path fill="none" stroke="#010202" stroke-width="2.17" stroke-linecap="round" stroke-linejoin="round" stroke-miterlimit="10" d="
	M52.973,120.247l56.086,31.738c1.876,1.063,4.175,1.046,6.036-0.042l54.303-31.738c3.991-2.332,4.001-8.096,0.02-10.441
	l-54.305-31.995c-1.87-1.103-4.187-1.118-6.072-0.043l-56.085,31.995C48.875,112.049,48.885,117.935,52.973,120.247z"/>
<line fill="none" stroke="#010202" stroke-width="2.17" stroke-linecap="round" stroke-linejoin="round" stroke-miterlimit="10" x1="113.397" y1="105.92" x2="113.397" y2="83.682"/>
<path fill="#FFFFFF" d="M115.095,161.71l41.527-24.271l-41.51-24.458c-1.87-1.102-4.187-1.118-6.073-0.042l-42.945,24.5
	l42.965,24.313C110.935,162.814,113.233,162.798,115.095,161.71"/>
<path fill="none" stroke="#010202" stroke-width="2.17" stroke-linecap="round" stroke-linejoin="round" stroke-miterlimit="10" d="
	M115.095,161.71l41.527-24.271l-41.51-24.458c-1.87-1.102-4.187-1.118-6.073-0.042l-42.945,24.5l42.965,24.313
	C110.935,162.814,113.233,162.798,115.095,161.71z"/>
<path fill="#FFFFFF" d="M129.504,46.601c2.786,0,5.341,2.227,5.341,5.34v72.982c0,1.904-1.016,3.666-2.666,4.619l-36.729,21.205
	c-0.858,0.495-1.771,0.722-2.657,0.722c-2.787,0-5.343-2.228-5.343-5.341V88.546c0-1.321,0.353-2.619,1.02-3.759l12.52-21.408
	c0.653-1.116,1.586-2.043,2.705-2.689l23.151-13.367C127.705,46.826,128.615,46.601,129.504,46.601 M129.504,42.26L129.504,42.26
	c-1.682,0-3.352,0.451-4.829,1.304l-23.151,13.367c-1.77,1.021-3.25,2.494-4.281,4.257L84.722,82.595
	c-1.055,1.804-1.612,3.862-1.612,5.951v57.582c0,5.339,4.344,9.682,9.683,9.682c1.681,0,3.351-0.451,4.829-1.304l36.728-21.205
	c2.984-1.724,4.837-4.934,4.837-8.378V51.94C139.186,46.603,134.842,42.26,129.504,42.26"/>
<path fill="#BBBDBF" d="M87.45,146.128V88.545c0-1.321,0.352-2.618,1.019-3.759l12.521-21.407c0.653-1.116,1.585-2.043,2.704-2.689
	l23.151-13.367c3.556-2.052,8,0.514,8,4.619v72.98c0,1.906-1.017,3.666-2.667,4.619L95.45,150.747
	C91.895,152.799,87.45,150.233,87.45,146.128"/>
<path fill="#CDC5D1" d="M92.791,149.842c-1.785,0-3.713-1.42-3.713-3.714V88.545c0-1.031,0.274-2.047,0.795-2.936l12.521-21.41
	c0.51-0.87,1.24-1.596,2.113-2.101l23.151-13.366c0.58-0.334,1.2-0.504,1.845-0.504c1.786,0,3.713,1.42,3.713,3.713v72.981
	c0,1.318-0.71,2.55-1.853,3.21l-36.728,21.205C94.057,149.672,93.436,149.842,92.791,149.842"/>
<path fill="#FFFFFF" d="M129.504,49.855L129.504,49.855c1.003,0,2.086,0.798,2.086,2.086v72.98c0,0.74-0.398,1.431-1.039,1.8
	l-36.729,21.205c-0.328,0.19-0.676,0.287-1.03,0.287c-1.003,0-2.086-0.798-2.086-2.086V88.545c0-0.743,0.197-1.474,0.572-2.115
	l12.521-21.407c0.367-0.627,0.893-1.151,1.523-1.515l23.15-13.365C128.802,49.952,129.148,49.855,129.504,49.855 M129.504,46.6
	c-0.889,0-1.799,0.227-2.659,0.723l-23.151,13.367c-1.119,0.646-2.052,1.572-2.705,2.689l-12.52,21.407
	c-0.667,1.141-1.02,2.438-1.02,3.759v57.583c0,3.113,2.556,5.341,5.343,5.341c0.887,0,1.799-0.226,2.657-0.723l36.729-21.205
	c1.65-0.953,2.666-2.713,2.666-4.619v-72.98C134.845,48.828,132.29,46.6,129.504,46.6"/>
<path fill="#FFFFFF" d="M100.46,82.056c2.558-1.478,4.134-4.206,4.134-7.16V68.68v-8.51l-0.9,0.52
	c-1.119,0.646-2.052,1.573-2.705,2.689l-12.52,21.407c-0.667,1.141-1.019,2.438-1.019,3.76v0.9l7.28-4.083L100.46,82.056z"/>
<path fill="none" stroke="#482D57" stroke-width="2.17" stroke-miterlimit="10" d="M87.45,146.128V88.545
	c0-1.321,0.352-2.618,1.019-3.759l12.521-21.407c0.653-1.116,1.585-2.043,2.704-2.689l23.151-13.367c3.556-2.052,8,0.514,8,4.619
	v72.98c0,1.906-1.017,3.666-2.667,4.619L95.45,150.747C91.895,152.799,87.45,150.233,87.45,146.128z"/>
<path fill="none" stroke="#482D57" stroke-width="2.17" stroke-linecap="round" stroke-linejoin="round" stroke-miterlimit="10" d="
	M91.586,87.18l3.145-1.816l5.729-3.308c2.559-1.477,4.135-4.206,4.135-7.159v-6.216v-2.692"/>
<path fill="#482D57" d="M127.117,104.713c-0.988-1.407-2.725-1.712-4.703-0.559v7.105L127.117,104.713z"/>
<path fill="#482D57" d="M121.396,107.012c-3.076,1.794-5.57,6.429-5.57,10.354c0,3.924,2.494,5.65,5.57,3.857
	c3.075-1.794,5.569-6.429,5.569-10.353l-5.569,3.247V107.012z"/>
<path fill="#482D57" d="M122.556,112.427l5.569-3.246c0-1.401-0.318-2.52-0.866-3.301L122.556,112.427z"/>
<polygon fill="#482D57" points="126.023,84.701 98.511,100.742 98.511,86.911 126.023,70.872 "/>
<polygon fill="#482D57" points="126.023,94.248 98.511,110.289 98.511,105.359 126.023,89.318 "/>
<polygon fill="#482D57" points="113.254,111.24 98.51,119.836 98.51,114.906 113.254,106.31 "/>
<polygon fill="#482D57" points="113.254,120.786 98.51,129.383 98.51,124.452 113.254,115.856 "/>
<polygon fill="#482D57" points="110.379,132.009 98.511,138.93 98.511,133.999 110.379,127.079 "/>
<path fill="#E32486" d="M49.918,114.851H49.9v0.138C49.9,114.942,49.917,114.897,49.918,114.851"/>
<path fill="#E32486" d="M172.395,114.97v-0.119h-0.015C172.381,114.891,172.395,114.931,172.395,114.97"/>
<path fill="#FFFFFF" d="M169.397,120.205l-54.303,31.738c-1.861,1.088-4.161,1.104-6.036,0.042l-56.086-31.738
	c-2.044-1.155-3.068-3.206-3.072-5.257v36.33h0.018c-0.044,2.098,0.964,4.214,3.055,5.397l56.086,31.737
	c1.875,1.063,4.175,1.046,6.036-0.042l54.303-31.737c2.042-1.193,3.025-3.283,2.982-5.355h0.015v-36.312
	C172.385,117.028,171.387,119.042,169.397,120.205"/>
<path fill="none" stroke="#010202" stroke-width="2.17" stroke-linecap="round" stroke-linejoin="round" stroke-miterlimit="10" d="
	M169.397,120.205l-54.303,31.738c-1.861,1.088-4.161,1.104-6.036,0.042l-56.086-31.738c-2.044-1.155-3.068-3.206-3.072-5.257v36.33
	h0.018c-0.044,2.098,0.964,4.214,3.055,5.397l56.086,31.737c1.875,1.063,4.175,1.046,6.036-0.042l54.303-31.737
	c2.042-1.193,3.025-3.283,2.982-5.355h0.015v-36.312C172.385,117.028,171.387,119.042,169.397,120.205z"/>
<line fill="none" stroke="#010202" stroke-width="2.17" stroke-linecap="round" stroke-linejoin="round" stroke-miterlimit="10" x1="113.397" y1="181.708" x2="113.397" y2="159.471"/>
</svg>
