<?xml version="1.0" encoding="UTF-8"?>
<svg width="41px" height="41px" viewBox="0 0 41 41" version="1.1" xmlns="http://www.w3.org/2000/svg" xmlns:xlink="http://www.w3.org/1999/xlink">
    <!-- Generator: Sketch 40 (33762) - http://www.bohemiancoding.com/sketch -->
    <title>1489683190_folder</title>
    <desc>Created with Sketch.</desc>
    <defs></defs>
    <g id="Page-1" stroke="none" stroke-width="1" fill="none" fill-rule="evenodd">
        <g id="1489683190_folder">
            <path d="M36.3,7 L19.7,7 C18.8,7 18,6.3 18,5.3 L18,3.7 C18,1.7 16.3,0 14.3,0 L3.7,0 C1.7,0 0,1.6 0,3.7 L0,36.4 C0,38.4 1.7,40.1 3.7,40.1 L36.4,40.1 C38.4,40.1 40.1,38.5 40.1,36.4 L40.1,10.7 C40,8.6 38.3,7 36.3,7 L36.3,7 Z M38,13.3 L5,13.3 C4.5,13.3 4,13.7 4,14.3 C4,14.9 4.5,15.3 5,15.3 L38,15.3 L38,36.3 C38,37.2 37.2,38 36.3,38 L3.7,38 C2.8,38 2,37.3 2,36.3 L2,3.7 C2,2.7 2.8,2 3.7,2 L14.4,2 C15.3,2 16,2.7 16,3.7 L16,5.4 C16,7.4 17.7,9.1 19.7,9.1 L36.4,9.1 C37.3,9.1 38.1,9.9 38.1,10.8 L38.1,13.3 L38,13.3 Z" id="Shape" fill="#FFFFFF"></path>
            <path d="M34.8,28 L28,28 C27.4,28 27,27.6 27,27 C27,26.4 27.4,26 28,26 L34.8,26 C35.4,26 35.8,26.4 35.8,27 C35.8,27.6 35.3,28 34.8,28 L34.8,28 Z" id="Shape" fill="#18D8D8"></path>
            <path d="M34.8,32 L28,32 C27.4,32 27,31.6 27,31 C27,30.4 27.4,30 28,30 L34.8,30 C35.4,30 35.8,30.4 35.8,31 C35.8,31.6 35.3,32 34.8,32 L34.8,32 Z" id="Shape" fill="#18D8D8"></path>
        </g>
    </g>
</svg>