<?xml version="1.0" encoding="UTF-8"?>
<svg width="249px" height="237px" viewBox="0 0 249 237" version="1.1" xmlns="http://www.w3.org/2000/svg" xmlns:xlink="http://www.w3.org/1999/xlink">
    <!-- Generator: Sketch 40 (33762) - http://www.bohemiancoding.com/sketch -->
    <title>1486925524_advantage_cloud</title>
    <desc>Created with Sketch.</desc>
    <defs></defs>
    <g id="Page-1" stroke="none" stroke-width="1" fill="none" fill-rule="evenodd">
        <g id="1486925524_advantage_cloud">
            <g id="row_4">
                <g id="cloud">
                    <g id="Group" transform="translate(16.600000, 162.157895)" fill="#2196F3">
                        <rect id="Rectangle-path" x="128.65" y="58.2105263" width="87.15" height="8.31578947"></rect>
                        <rect id="Rectangle-path" x="0" y="58.2105263" width="87.15" height="8.31578947"></rect>
                        <rect id="Rectangle-path" x="103.75" y="0" width="8.3" height="54.0526316"></rect>
                    </g>
                    <path d="M141.1,237 L107.9,237 C103.335,237 99.6,233.257895 99.6,228.684211 L99.6,220.368421 C99.6,215.794737 103.335,212.052632 107.9,212.052632 L141.1,212.052632 C145.665,212.052632 149.4,215.794737 149.4,220.368421 L149.4,228.684211 C149.4,233.257895 145.665,237 141.1,237 L141.1,237 Z" id="Shape" fill="#F50057"></path>
                    <path d="M196.71,42.4105263 C182.6,17.0473684 155.625,0 124.5,0 C78.85,0 41.5,37.4210526 41.5,83.1578947 C18.675,83.1578947 0,101.868421 0,124.736842 C0,147.605263 18.675,166.315789 41.5,166.315789 L186.75,166.315789 C221.195,166.315789 249,138.457895 249,103.947368 C249,73.5947368 226.59,47.4 196.71,42.4105263 L196.71,42.4105263 Z" id="Shape" fill="#6378E7"></path>
                    <path d="M41.5,83.1578947 C54.365,83.1578947 66.4,88.9789474 74.285,99.3736842 L67.645,104.363158 C61.42,96.0473684 56.44,86.0684211 41.5,83.1578947 L41.5,83.1578947 Z" id="Shape" fill="#2740C4"></path>
                    <path d="M196.71,42.4105263 C203.35,54.4684211 207.5,68.1894737 207.5,83.1578947 L199.2,83.1578947 C199.2,69.0210526 200.445,53.6368421 196.71,42.4105263 L196.71,42.4105263 Z" id="Shape" fill="#2740C4"></path>
                </g>
            </g>
        </g>
    </g>
</svg>