<?xml version="1.0" ?><!DOCTYPE svg  PUBLIC '-//W3C//DTD SVG 1.1//EN'  'http://www.w3.org/Graphics/SVG/1.1/DTD/svg11.dtd'><svg enable-background="new 0 0 128 128" id="Слой_1" version="1.1" viewBox="0 0 128 128" xml:space="preserve" xmlns="http://www.w3.org/2000/svg" xmlns:xlink="http://www.w3.org/1999/xlink"><g><polygon fill="#E36249" points="73,4 19,4 19,124 109,124 109,40  "/></g><g opacity="0.2"><polygon fill="#070B0C" points="73,40 109,40 73,4  "/></g><g><path d="M109,125.2H19c-0.7,0-1.2-0.6-1.2-1.2V4c0-0.7,0.6-1.2,1.2-1.2h50c6.2,0,11.2,5,11.2,11.2v18.8H99   c6.2,0,11.2,5,11.2,11.2v80C110.2,124.7,109.7,125.2,109,125.2z M20.2,122.8h87.5V44c0-4.8-3.9-8.8-8.8-8.8H79   c-0.7,0-1.2-0.6-1.2-1.2V14c0-4.8-3.9-8.8-8.8-8.8H20.2V122.8z" fill="#1E1E1E"/></g><g><g><path d="M76,6.9c1.8,1.8,3,4.3,3,7.1v20h20c2.7,0,5.2,1.1,7,2.9h0L76,6.9L76,6.9z" fill="#434444"/></g></g><g><g><path d="M106,38.1L106,38.1c-0.3,0-0.7-0.1-0.9-0.4c-1.7-1.6-3.8-2.5-6.2-2.5H79c-0.7,0-1.2-0.6-1.2-1.2V14    c0-2.4-0.9-4.6-2.6-6.2c-0.2-0.2-0.4-0.6-0.4-0.9c0-0.5,0.3-1,0.8-1.2c0.5-0.2,1-0.1,1.4,0.3l30,30c0.4,0.4,0.5,0.9,0.3,1.4    C107,37.8,106.5,38.1,106,38.1z M80.2,32.8H99c0.4,0,0.8,0,1.2,0.1l-20-20c0,0.4,0.1,0.8,0.1,1.2V32.8z" fill="#1E1E1E"/></g></g><g><g><g><rect fill="#FFFFFF" height="8" width="48" x="40" y="70"/></g><g><rect fill="#FFFFFF" height="8" transform="matrix(0.7071 0.7071 -0.7071 0.7071 71.0589 -23.5757)" width="48" x="40" y="70"/></g><g><rect fill="#FFFFFF" height="48" width="8" x="60" y="50"/></g><g><rect fill="#FFFFFF" height="48" width="8" x="60" y="50"/></g><g><rect fill="#FFFFFF" height="48" transform="matrix(0.7071 0.7071 -0.7071 0.7071 71.042 -23.5349)" width="8" x="59.9" y="50"/></g></g><g><circle cx="64" cy="74" fill="#FFFFFF" r="19"/></g><g><circle cx="64" cy="74" fill="#E36249" r="9"/></g></g></svg>