<?xml version="1.0" encoding="UTF-8" standalone="no"?>
<svg width="66px" height="66px" viewBox="0 0 66 66" version="1.1" xmlns="http://www.w3.org/2000/svg" xmlns:xlink="http://www.w3.org/1999/xlink">
    <!-- Generator: Sketch 39.1 (31720) - http://www.bohemiancoding.com/sketch -->
    <title>1473868987_Hunting_1</title>
    <desc>Created with Sketch.</desc>
    <defs></defs>
    <g id="Page-1" stroke="none" stroke-width="1" fill="none" fill-rule="evenodd">
        <g id="1473868987_Hunting_1" fill="#5CC2BE">
            <g id="Layer_1">
                <g id="Group">
                    <path d="M38.123,11.286 C38.123,11.286 44.698,12.618 48.72,17.242 C52.741,21.865 52.605,22.292 54.214,26.768 C54.751,28.23 55.822,28.097 56.224,28.029 C56.626,27.962 57.832,27.359 57.129,25.282 C56.425,23.204 53.317,12.014 39.427,8.396 C37.997,8.127 37.47,8.597 37.243,9.25 C37.018,9.904 37.183,11.048 38.123,11.286 L38.123,11.286 Z" id="Shape"></path>
                    <path d="M26.313,11.286 C26.313,11.286 19.739,12.618 15.719,17.242 C11.698,21.865 11.834,22.292 10.225,26.768 C9.688,28.23 8.617,28.097 8.215,28.029 C7.813,27.962 6.604,27.359 7.307,25.282 C8.011,23.204 11.117,12.014 25.009,8.396 C26.438,8.127 26.966,8.597 27.192,9.25 C27.418,9.904 27.255,11.048 26.313,11.286 L26.313,11.286 Z" id="Shape"></path>
                    <path d="M26.343,55.301 C26.343,55.301 19.761,53.997 15.722,49.391 C11.683,44.784 11.815,44.355 10.188,39.887 C9.645,38.428 8.575,38.566 8.175,38.635 C7.773,38.702 6.567,39.311 7.279,41.385 C7.99,43.461 11.144,54.636 25.052,58.197 C26.483,58.46 27.008,57.987 27.23,57.334 C27.453,56.678 27.284,55.534 26.343,55.301 L26.343,55.301 Z" id="Shape"></path>
                    <path d="M38.151,55.379 C38.151,55.379 44.721,54.021 48.722,49.38 C52.724,44.739 52.585,44.311 54.175,39.828 C54.706,38.364 55.778,38.495 56.183,38.56 C56.584,38.624 57.793,39.221 57.1,41.304 C56.403,43.383 53.342,54.585 39.466,58.263 C38.039,58.536 37.51,58.071 37.28,57.418 C37.052,56.766 37.212,55.621 38.151,55.379 L38.151,55.379 Z" id="Shape"></path>
                    <path d="M38.478,21.803 C38.478,21.803 41.745,23.034 43.705,27.105 C44.232,28.01 45.087,28.311 45.991,27.859 C46.895,27.407 46.87,26.304 46.67,25.902 C46.469,25.497 44.71,21.2 39.86,18.914 C38.956,18.612 38.302,19.341 38.101,19.542 C37.899,19.742 37.522,20.974 38.478,21.803 L38.478,21.803 Z" id="Shape"></path>
                    <path d="M26.26,21.803 C26.26,21.803 22.993,23.034 21.033,27.105 C20.505,28.01 19.651,28.311 18.746,27.859 C17.841,27.407 17.867,26.304 18.067,25.902 C18.268,25.497 20.027,21.2 24.877,18.914 C25.782,18.612 26.435,19.341 26.636,19.542 C26.837,19.742 27.214,20.974 26.26,21.803 L26.26,21.803 Z" id="Shape"></path>
                    <path d="M26.26,44.124 C26.26,44.124 22.993,42.893 21.033,38.823 C20.505,37.919 19.651,37.617 18.746,38.069 C17.841,38.521 17.867,39.623 18.067,40.027 C18.268,40.429 20.027,44.726 24.877,47.013 C25.782,47.314 26.435,46.585 26.636,46.384 C26.837,46.184 27.214,44.953 26.26,44.124 L26.26,44.124 Z" id="Shape"></path>
                    <path d="M38.478,44.125 C38.478,44.125 41.745,42.894 43.705,38.821 C44.232,37.917 45.087,37.615 45.991,38.068 C46.895,38.52 46.87,39.624 46.67,40.026 C46.469,40.431 44.71,44.728 39.86,47.014 C38.956,47.316 38.302,46.587 38.101,46.386 C37.9,46.185 37.522,44.954 38.478,44.125 L38.478,44.125 Z" id="Shape"></path>
                    <path d="M63.454,30.932 L34.257,30.932 L34.257,2.545 C34.257,1.656 33.536,0.937 32.649,0.937 L31.744,0.937 C30.857,0.937 30.136,1.656 30.136,2.545 L30.136,30.931 L2.545,30.931 C1.656,30.931 0.937,31.652 0.937,32.539 L0.937,33.443 C0.937,34.331 1.656,35.051 2.545,35.051 L30.135,35.051 L30.135,63.452 C30.135,64.34 30.856,65.06 31.743,65.06 L32.648,65.06 C33.535,65.06 34.256,64.339 34.256,63.452 L34.256,35.053 L63.453,35.053 C64.342,35.053 65.061,34.332 65.061,33.445 L65.061,32.54 C65.062,31.652 64.343,30.932 63.454,30.932 L63.454,30.932 Z" id="Shape"></path>
                </g>
            </g>
        </g>
    </g>
</svg>