<?xml version="1.0" encoding="UTF-8" standalone="no"?>
<svg width="500px" height="500px" viewBox="0 0 500 500" version="1.1" xmlns="http://www.w3.org/2000/svg" xmlns:xlink="http://www.w3.org/1999/xlink">
    <!-- Generator: Sketch 39.1 (31720) - http://www.bohemiancoding.com/sketch -->
    <title>1473598430_dvd-disc-drive</title>
    <desc>Created with Sketch.</desc>
    <defs></defs>
    <g id="Page-1" stroke="none" stroke-width="1" fill="none" fill-rule="evenodd">
        <g id="1473598430_dvd-disc-drive">
            <g id="dvd-disc-drive">
                <g id="Group">
                    <path d="M249.996,0 C111.93,0 0,111.925 0,250.001 C0,388.063 111.93,499.997 249.996,499.997 C388.072,499.997 499.997,388.063 499.997,250.001 C499.997,111.925 388.072,0 249.996,0 L249.996,0 Z" id="Shape" fill="#6C69EA"></path>
                    <g id="_x31_6" transform="translate(113.000000, 131.000000)">
                        <path d="M273.602,214.418 C273.65,226.395 263.983,237.048 252.02,237.096 L22.214,237.096 C10.252,237.135 0.506,227.487 0.458,215.509 L0.4,199.409 C0.346,187.442 10.014,177.701 21.977,177.653 L251.789,177.653 C263.746,177.605 273.492,186.346 273.53,198.304 L273.602,214.418 L273.602,214.418 Z" id="Shape" fill="#FFFFFF"></path>
                        <path d="M239.694,226.235 C239.704,227.452 238.724,228.442 237.501,228.442 L225.844,228.496 C224.631,228.496 223.637,227.516 223.637,226.294 L223.637,226.294 C223.637,225.081 224.612,224.092 225.83,224.087 L237.482,224.038 C238.7,224.028 239.694,225.013 239.694,226.235 L239.694,226.235 L239.694,226.235 Z" id="Shape" fill="#F2955C"></path>
                        <g id="Group" transform="translate(23.000000, 195.000000)">
                            <path d="M227.051,11.516 C227.085,17.948 221.889,23.987 215.447,24.021 L12.641,24.021 C6.209,24.05 0.975,18.855 0.95,12.418 L0.95,12.418 C0.921,5.981 6.111,0.752 12.553,0.727 L215.36,0.727 C221.797,0.698 227.036,5.079 227.051,11.516 L227.051,11.516 L227.051,11.516 Z" id="Shape" fill="#E9E9EA"></path>
                            <rect id="Rectangle-path" fill="#BBC1C9" x="1.353" y="10.294" width="225.698" height="2.93"></rect>
                        </g>
                        <g id="Group" transform="translate(57.000000, 0.000000)">
                            <path d="M83.775,0.901 C38.007,0.901 0.907,38.005 0.907,83.779 C0.907,129.547 38.007,166.642 83.775,166.642 C129.543,166.642 166.643,129.548 166.643,83.779 C166.643,38.005 129.543,0.901 83.775,0.901 L83.775,0.901 Z M83.775,104.138 C72.521,104.138 63.402,95.023 63.402,83.779 C63.402,72.53 72.522,63.41 83.775,63.41 C95.02,63.41 104.135,72.53 104.135,83.779 C104.134,95.023 95.019,104.138 83.775,104.138 L83.775,104.138 Z" id="Shape" fill="#E5E6E7"></path>
                            <path d="M83.775,56.871 C68.917,56.871 56.872,68.911 56.872,83.779 C56.872,98.632 68.917,110.672 83.775,110.672 C98.634,110.672 110.679,98.632 110.679,83.779 C110.678,68.91 98.633,56.871 83.775,56.871 L83.775,56.871 Z M83.775,98.792 C75.48,98.792 68.752,92.069 68.752,83.779 C68.752,75.474 75.48,68.756 83.775,68.756 C92.07,68.756 98.789,75.474 98.789,83.779 C98.788,92.069 92.07,98.792 83.775,98.792 L83.775,98.792 Z" id="Shape" fill="#AAB2BC"></path>
                            <g transform="translate(17.000000, 15.000000)" id="Shape" fill="#FFFFFF">
                                <path d="M39.639,84.879 L0.633,108.047 C2.006,110.37 3.495,112.611 5.111,114.775 L41.483,87.643 C40.822,86.751 40.206,85.839 39.639,84.879 L39.639,84.879 Z"></path>
                                <path d="M97.321,60.842 L141.246,49.433 C140.499,46.527 139.558,43.689 138.486,40.929 L96.196,57.345 C96.637,58.48 97.011,59.649 97.321,60.842 L97.321,60.842 Z"></path>
                                <path d="M94.74,54.119 L134.91,33.076 C127.614,19.168 116.181,7.769 102.249,0.517 L81.332,40.76 C87.052,43.743 91.742,48.41 94.74,54.119 L94.74,54.119 Z"></path>
                            </g>
                        </g>
                    </g>
                </g>
            </g>
        </g>
    </g>
</svg>