<?xml version="1.0" encoding="UTF-8" standalone="no"?>
<svg width="20px" height="18px" viewBox="0 0 20 18" version="1.1" xmlns="http://www.w3.org/2000/svg" xmlns:xlink="http://www.w3.org/1999/xlink">
    <!-- Generator: Sketch 39.1 (31720) - http://www.bohemiancoding.com/sketch -->
    <title>ncChannelType</title>
    <desc>Created with Sketch.</desc>
    <defs></defs>
    <g id="Page-1" stroke="none" stroke-width="1" fill="none" fill-rule="evenodd">
        <g id="RESEC_channels_mgmt_create-new-channel_1.0" transform="translate(-636.000000, -230.000000)">
            <g id="ncChannelType" transform="translate(636.000000, 230.000000)">
                <path d="M0,11 L4,11 L4,7 L0,7 L0,11 L0,11 Z M9,2.5 L9,8 L6,8 L6,10 L9,10 L9,15.5 C9,16.25 9.25,17 10,17 L14,17 L14,15 L11,15 L11,10 L14,10 L14,8 L11,8 L11,3 L14,3 L14,1 L10,1 C9.25,1 9,1.75 9,2.5 L9,2.5 Z" id="Shape" fill="#292788"></path>
                <polygon id="Path" fill="#6B69EA" points="16 18 20 18 20 14 16 14"></polygon>
                <polygon id="Path" fill="#6B69EA" points="16 11 20 11 20 7 16 7"></polygon>
                <polygon id="Path" fill="#6B69EA" points="16 0 16 4 20 4 20 0"></polygon>
            </g>
        </g>
    </g>
</svg>