<?xml version="1.0" encoding="UTF-8"?>
<svg width="185px" height="145px" viewBox="0 0 185 145" version="1.1" xmlns="http://www.w3.org/2000/svg" xmlns:xlink="http://www.w3.org/1999/xlink">
    <!-- Generator: Sketch 40 (33762) - http://www.bohemiancoding.com/sketch -->
    <title>1486922010_Normal_LCD</title>
    <desc>Created with Sketch.</desc>
    <defs></defs>
    <g id="Page-1" stroke="none" stroke-width="1" fill="none" fill-rule="evenodd">
        <g id="1486922010_Normal_LCD">
            <g id="Layer_x0020_1">
                <g id="_134004304">
                    <polygon id="_133627200" fill="#424242" points="71.986714 117.960309 112.986628 117.960309 115.538358 140.152713 69.4346561 140.152713"></polygon>
                    <rect id="_133626552" fill="#212121" x="29.5613351" y="140.028302" width="125.850672" height="3.6155637" rx="0.149173"></rect>
                    <path d="M34.6651228,143.555793 L38.4862874,143.555793 L38.4862874,143.774336 C38.4862874,144.312956 38.0458433,144.753656 37.507572,144.753656 L35.6438513,144.753656 C35.1055439,144.753656 34.6651359,144.312956 34.6651359,143.774336 L34.6651359,143.555793 L34.6651228,143.555793 Z" id="_133626312" fill="#212121"></path>
                    <path d="M146.486858,143.555793 L150.308055,143.555793 L150.308055,143.774336 C150.308055,144.312956 149.867611,144.753656 149.32934,144.753656 L147.465619,144.753656 C146.927312,144.753656 146.486868,144.312956 146.486868,143.774336 L146.486868,143.555793 L146.486858,143.555793 Z" id="_133626408" fill="#212121"></path>
                    <path d="M5.12453596,121.202213 L179.848806,121.202213 C182.656378,121.202213 184.953348,118.904265 184.953348,116.095524 L184.953348,6.04508304 C184.953348,3.23631235 182.654748,0.938361522 179.848806,0.938361522 L5.12453596,0.938361522 C2.31858784,0.938361522 0.0200264912,3.23790113 0.0200264912,6.04508304 L0.0200264912,116.095524 C0.0200264912,118.90267 2.31699998,121.202213 5.12453596,121.202213 L5.12453596,121.202213 Z" id="_133653984" fill="#121212"></path>
                    <g id="Group" transform="translate(7.842105, 8.847826)">
                        <rect id="_133653816" fill="#424242" x="0.353331579" y="0.428591304" width="168.582468" height="103.666424"></rect>
                        <polygon id="_133654272" fill="#595959" points="89.8338158 0.428591304 149.660037 104.095015 168.9358 104.095015 168.9358 0.428591304"></polygon>
                    </g>
                </g>
            </g>
        </g>
    </g>
</svg>