<?xml version="1.0" encoding="UTF-8" standalone="no"?>
<svg width="34px" height="39px" viewBox="0 0 34 39" version="1.1" xmlns="http://www.w3.org/2000/svg" xmlns:xlink="http://www.w3.org/1999/xlink">
    <!-- Generator: Sketch 39.1 (31720) - http://www.bohemiancoding.com/sketch -->
    <title>editDesc</title>
    <desc>Created with Sketch.</desc>
    <defs></defs>
    <g id="Page-1" stroke="none" stroke-width="1" fill="none" fill-rule="evenodd">
        <g id="editDesc">
            <g id="Layer_1">
                <path d="M30,39 L4,39 C1.791,39 0,37.4815435 0,35.6086957 L0,5.93478261 C0,4.06193478 1.791,2.54347826 4,2.54347826 L7,2.54347826 L7,2.54347826 C7.553,2.54347826 8,2.92330435 8,3.39130435 C8,3.85930435 7.553,4.23913043 7,4.23913043 L7,4.23913043 L4,4.23913043 C2.896,4.23913043 2,4.99878261 2,5.93478261 L2,35.6086957 C2,36.5446957 2.896,37.3043478 4,37.3043478 L30,37.3043478 C31.104,37.3043478 32,36.5446957 32,35.6086957 L32,5.93478261 C32,4.99878261 31.104,4.23913043 30,4.23913043 L27,4.23913043 L27,4.23913043 C26.447,4.23913043 26,3.85930435 26,3.39130435 C26,2.92330435 26.447,2.54347826 27,2.54347826 L27.001,2.54347826 L30,2.54347826 C32.209,2.54347826 34,4.06193478 34,5.93478261 L34,35.6086957 C34,37.4815435 32.209,39 30,39 L30,39 Z M28,6.7826087 C28,7.2506087 27.553,7.63043478 27,7.63043478 L7,7.63043478 C6.447,7.63043478 6,7.2506087 6,6.7826087 C6,6.3146087 6.447,5.93478261 7,5.93478261 C7,5.93478261 8.125,5.82880435 9,5.08695652 L11,3.39130435 C11,3.39130435 11.781,2.54347826 13,2.54347826 L14,2.54347826 C14,1.13863043 15.344,0 17,0 C18.657,0 20,1.13863043 20,2.54347826 L21,2.54347826 C22.312,2.54347826 23,3.39130435 23,3.39130435 L25,5.08695652 C25.875,5.82880435 27,5.93478261 27,5.93478261 C27.553,5.93478261 28,6.3146087 28,6.7826087 L28,6.7826087 Z M17,1.69565217 C16.447,1.69565217 16,2.07547826 16,2.54347826 L18,2.54347826 C18,2.07547826 17.553,1.69565217 17,1.69565217 L17,1.69565217 Z M22.363,5.08695652 C22.363,5.08695652 21.684,4.23913043 20.546,4.23913043 L13.455,4.23913043 C12.315,4.23913043 11.637,5.08695652 11.637,5.08695652 L10.728,5.93478261 L23.273,5.93478261 L22.363,5.08695652 L22.363,5.08695652 Z" id="Shape" fill="#292788"></path>
                <path d="M8.5,18.5 L26.5,18.5" id="Line" stroke="#6B69EA" stroke-width="3" stroke-linecap="square"></path>
                <path d="M8.5,26.5 L26.5,26.5" id="Line" stroke="#6B69EA" stroke-width="3" stroke-linecap="square"></path>
            </g>
        </g>
    </g>
</svg>