<?xml version="1.0" encoding="UTF-8" standalone="no"?>
<svg width="32px" height="26px" viewBox="0 0 32 26" version="1.1" xmlns="http://www.w3.org/2000/svg" xmlns:xlink="http://www.w3.org/1999/xlink">
    <!-- Generator: Sketch 39.1 (31720) - http://www.bohemiancoding.com/sketch -->
    <title>ncEndpoint</title>
    <desc>Created with Sketch.</desc>
    <defs></defs>
    <g id="Page-1" stroke="none" stroke-width="1" fill="none" fill-rule="evenodd">
        <g id="ncEndpoint" fill="#6B69EA">
            <g id="Layer_1">
                <path d="M32,22 L32,0 L0,0 L0,22 L14,22 L14,25 L10,25 L10,26 L22,26 L22,25 L18,25 L18,22 L32,22 L32,22 Z M1,21 L1,1 L31,1 L31,21 L1,21 L1,21 Z M17,25 L15,25 L15,22 L17,22 L17,25 L17,25 Z" id="Shape"></path>
                <path d="M30,2 L2,2 L2,20 L30,20 L30,2 L30,2 Z M29,19 L3,19 L3,3 L29,3 L29,19 L29,19 Z" id="Shape"></path>
            </g>
        </g>
    </g>
</svg>