<?xml version="1.0" encoding="UTF-8" standalone="no"?>
<svg width="44px" height="36px" viewBox="0 0 44 36" version="1.1" xmlns="http://www.w3.org/2000/svg" xmlns:xlink="http://www.w3.org/1999/xlink">
    <!-- Generator: Sketch 39.1 (31720) - http://www.bohemiancoding.com/sketch -->
    <title>1474468137_ic_input_48px</title>
    <desc>Created with Sketch.</desc>
    <defs></defs>
    <g id="Page-1" stroke="none" stroke-width="1" fill="none" fill-rule="evenodd">
        <g id="1474468137_ic_input_48px" fill="#311B92">
            <path d="M40,0.02 L4,0.02 C1.79,0.02 0,1.81 0,4.02 L0,12 L4,12 L4,3.98 L40,3.98 L40,32.04 L4,32.04 L4,24 L0,24 L0,32.02 C0,34.23 1.79,35.98 4,35.98 L40,35.98 C42.21,35.98 44,34.22 44,32.02 L44,4.02 C44,1.81 42.21,0.02 40,0.02 L40,0.02 Z M20,26 L28,18 L20,10 L20,16 L0,16 L0,20 L20,20 L20,26 L20,26 Z" id="Shape"></path>
        </g>
    </g>
</svg>