<?xml version="1.0" encoding="UTF-8" standalone="no"?>
<svg width="210px" height="430px" viewBox="0 0 210 430" version="1.1" xmlns="http://www.w3.org/2000/svg" xmlns:xlink="http://www.w3.org/1999/xlink">
    <!-- Generator: Sketch 39.1 (31720) - http://www.bohemiancoding.com/sketch -->
    <title>rect3010</title>
    <desc>Created with Sketch.</desc>
    <defs></defs>
    <g id="Page-1" stroke="none" stroke-width="1" fill="none" fill-rule="evenodd">
        <g id="1473676933_remove-70px" transform="translate(0.000000, -1.000000)" fill="#6B69E9">
            <g id="1473678651_BT_iphone">
                <g id="svg2">
                    <g id="layer1" transform="translate(0.000000, 0.637820)">
                        <g id="g4305">
                            <g id="g4345" transform="translate(0.000000, -0.000010)">
                                <g id="text2994">
                                    <g id="g3830" transform="translate(0.000000, 0.243590)">
                                        <g id="g3838">
                                            <g id="g3785">
                                                <path d="M30,0.1186 C22.14623,0.11939 14.3347,3.34639 8.78125,8.89985 C3.22779,14.4533 0.00079,22.26483 0,30.1186 L0,400.1186 C0.00079,407.9724 3.22779,415.7839 8.78125,421.3374 C14.3347,426.8909 22.14623,430.1178 30,430.1186 L180,430.1186 C187.85377,430.1178 195.6653,426.8909 201.21875,421.3374 C206.77221,415.7839 209.99921,407.9724 210,400.1186 L210,30.1186 C209.99921,22.26483 206.77221,14.4533 201.21875,8.89985 C195.6653,3.34639 187.85377,0.11939 180,0.1186 L30,0.1186 L30,0.1186 Z M89.28125,20.1186 C89.354158,20.1170067 89.427092,20.1170067 89.5,20.1186 C89.6665624,20.1102623 89.8334376,20.1102623 90,20.1186 L120,20.1186 C121.80318,20.0930986 123.480407,21.0404765 124.389439,22.5979642 C125.29847,24.155452 125.29847,26.081748 124.389439,27.6392358 C123.480407,29.1967235 121.80318,30.1441014 120,30.1186 L90,30.1186 C87.2385764,30.3170771 84.8391027,28.2393986 84.6406254,25.477975 C84.442148,22.7165514 86.5198264,20.3170775 89.28125,20.1186 L89.28125,20.1186 Z M10,50.1186 L200,50.1186 L200,375.1186 L10,375.1186 L10,50.1186 L10,50.1186 Z M105,385.1186 C113.28427,385.1186 120,391.83433 120,400.1186 C120,408.4029 113.28427,415.1186 105,415.1186 C96.71573,415.1186 90,408.4029 90,400.1186 C90,391.83433 96.71573,385.1186 105,385.1186 L105,385.1186 Z" id="rect3010"></path>
                                            </g>
                                        </g>
                                    </g>
                                </g>
                            </g>
                        </g>
                    </g>
                </g>
            </g>
        </g>
    </g>
</svg>