<?xml version="1.0" encoding="UTF-8" standalone="no"?>
<svg width="140px" height="289px" viewBox="0 0 140 289" version="1.1" xmlns="http://www.w3.org/2000/svg" xmlns:xlink="http://www.w3.org/1999/xlink">
    <!-- Generator: Sketch 39.1 (31720) - http://www.bohemiancoding.com/sketch -->
    <title>1473598877_flat-iphone</title>
    <desc>Created with Sketch.</desc>
    <defs></defs>
    <g id="Page-1" stroke="none" stroke-width="1" fill="none" fill-rule="evenodd">
        <g id="1473598877_flat-iphone">
            <g id="Layer_1">
                <path d="M116.439,3.176 L26.695,3.176 C13.902,3.176 3.534,9.686 3.534,22.476 L3.534,269.2 C3.534,281.99 13.902,288.5 26.695,288.5 L116.439,288.5 C129.229,288.5 139.6,281.99 139.6,269.2 L139.6,22.477 C139.601,9.687 129.229,3.176 116.439,3.176 L116.439,3.176 Z" id="Shape" fill="#6C69EA"></path>
                <g id="Group" fill="#6C69EA">
                    <path d="M117.115,0.04 L113.577,0.04 L106.199,0.04 L102.66,0.04 C101.878,0.04 101.243,0.822 101.243,1.789 L101.243,3.176 L104.78,3.176 L114.995,3.176 L118.532,3.176 L118.532,1.789 C118.532,0.822 117.897,0.04 117.115,0.04 L117.115,0.04 Z" id="Shape"></path>
                    <path d="M0.399,61.854 L0.399,72.771 C0.399,73.553 1.18,74.188 2.148,74.188 L3.534,74.188 L3.534,60.438 L2.148,60.438 C1.181,60.438 0.399,61.072 0.399,61.854 L0.399,61.854 Z" id="Shape"></path>
                    <path d="M0.399,35.076 L0.399,40.625 L0.399,45.993 L0.399,51.541 C0.399,52.323 1.18,52.958 2.148,52.958 L3.534,52.958 L3.534,47.41 L3.534,39.208 L3.534,33.659 L2.148,33.659 C1.181,33.658 0.399,34.294 0.399,35.076 L0.399,35.076 Z" id="Shape"></path>
                    <path d="M0.399,82.481 L0.399,93.398 C0.399,94.18 1.18,94.815 2.148,94.815 L3.534,94.815 L3.534,81.064 L2.148,81.064 C1.181,81.064 0.399,81.7 0.399,82.481 L0.399,82.481 Z" id="Shape"></path>
                </g>
                <rect id="Rectangle-path" fill="#DCDEE2" x="10.772" y="33.658" width="121.59" height="221.228"></rect>
                <g id="Group" transform="translate(55.000000, 11.000000)" fill="#454B53">
                    <circle id="Oval" cx="17.131" cy="3.6" r="3.377"></circle>
                    <path d="M30.559,10.193 L2.576,10.193 C1.198,10.193 0.083,11.309 0.083,12.686 C0.083,14.064 1.198,15.18 2.576,15.18 L30.559,15.18 C31.938,15.18 33.054,14.064 33.054,12.686 C33.054,11.309 31.938,10.193 30.559,10.193 L30.559,10.193 Z" id="Shape"></path>
                    <path d="M16.568,257.521 C14.374,257.521 12.592,259.302 12.592,261.496 C12.592,263.69 14.373,265.472 16.568,265.472 C18.76,265.472 20.542,263.691 20.542,261.496 C20.542,259.303 18.761,257.521 16.568,257.521 L16.568,257.521 Z" id="Shape"></path>
                    <path d="M16.568,251.967 C11.305,251.967 7.038,256.235 7.038,261.496 C7.038,266.759 11.306,271.026 16.568,271.026 C21.83,271.026 26.096,266.758 26.096,261.496 C26.097,256.234 21.83,251.967 16.568,251.967 L16.568,251.967 Z M16.568,266.161 C13.993,266.161 11.903,264.07 11.903,261.496 C11.903,258.922 13.993,256.831 16.568,256.831 C19.142,256.831 21.232,258.922 21.232,261.496 C21.232,264.07 19.143,266.161 16.568,266.161 L16.568,266.161 Z" id="Shape"></path>
                </g>
            </g>
        </g>
    </g>
</svg>