<?xml version="1.0" encoding="UTF-8" standalone="no"?>
<svg width="512px" height="428px" viewBox="0 0 512 428" version="1.1" xmlns="http://www.w3.org/2000/svg" xmlns:xlink="http://www.w3.org/1999/xlink">
    <!-- Generator: Sketch 39.1 (31720) - http://www.bohemiancoding.com/sketch -->
    <title>Shape</title>
    <desc>Created with Sketch.</desc>
    <defs></defs>
    <g id="Page-1" stroke="none" stroke-width="1" fill="none" fill-rule="evenodd">
        <g id="1473598605_document" fill="#6C69EA">
            <g id="Layer_1">
                <path d="M495.406,111.913 L495.406,111.538 L16.52,111.538 L16.52,111.925 C7.105,113.758 0,122.04 0,131.991 C0,131.991 6.727,234.317 7.961,271.18 C9.198,308.04 12.51,406.957 12.51,406.957 C12.51,418.25 14.844,427.407 26.136,427.407 L485.863,427.407 C497.157,427.407 499.489,418.25 499.489,406.957 C499.489,406.957 502.808,308.043 504.041,271.18 C505.274,234.319 512.001,131.991 512.001,131.991 C511.998,122.014 504.856,113.716 495.406,111.913 L495.406,111.913 Z M495.406,61.836 C495.406,51.209 486.794,42.598 476.163,42.598 L232.788,42.598 C225.18,42.408 219.316,28.584 219.316,23.296 L219.319,21.044 C219.319,9.747 210.162,0.593 198.868,0.593 L69.308,0.593 C58.013,0.593 48.856,9.746 48.856,21.044 L48.86,23.296 C48.86,28.622 42.919,42.611 35.232,42.611 L35.414,42.611 C24.949,42.798 16.52,51.327 16.52,61.836 L16.52,75.119 L495.406,75.119 L495.406,61.836 L495.406,61.836 Z" id="Shape"></path>
            </g>
        </g>
    </g>
</svg>