<?xml version="1.0" encoding="UTF-8" standalone="no"?>
<svg width="200px" height="170px" viewBox="0 0 200 170" version="1.1" xmlns="http://www.w3.org/2000/svg" xmlns:xlink="http://www.w3.org/1999/xlink">
    <!-- Generator: Sketch 39.1 (31720) - http://www.bohemiancoding.com/sketch -->
    <title>1473598972_vector_66_09</title>
    <desc>Created with Sketch.</desc>
    <defs></defs>
    <g id="Page-1" stroke="none" stroke-width="1" fill="none" fill-rule="evenodd">
        <g id="1473598972_vector_66_09" fill="#6C69EA">
            <g id="Layer_1">
                <g id="Group">
                    <g id="Shape">
                        <g transform="translate(100.000000, 84.000000)">
                            <path d="M62.438,79.185 L62.438,71.897 C62.438,71.496 62.286,71.089 61.969,70.777 C61.659,70.468 61.256,70.312 60.845,70.312 L39.154,70.312 C38.747,70.312 38.336,70.468 38.03,70.777 C37.721,71.09 37.565,71.496 37.565,71.897 L37.565,79.185 L29.053,83.89 C28.969,83.935 28.897,84.002 28.842,84.093 C28.791,84.183 28.766,84.281 28.766,84.375 L28.766,85.413 C28.766,85.553 28.821,85.694 28.926,85.802 C29.038,85.913 29.18,85.968 29.322,85.968 L70.68,85.968 C70.823,85.968 70.964,85.913 71.074,85.802 C71.182,85.695 71.237,85.553 71.237,85.413 L71.237,84.375 C71.237,84.28 71.208,84.183 71.157,84.093 C71.106,84.002 71.037,83.935 70.95,83.89 L62.438,79.185 L62.438,79.185 Z"></path>
                            <path d="M98.895,2.105 C98.157,1.369 97.197,0.998 96.23,0.998 L3.769,0.998 C2.802,0.998 1.842,1.369 1.104,2.105 C0.37,2.843 0.002,3.806 0.002,4.77 L0.002,64.621 C0.002,65.588 0.369,66.552 1.104,67.286 C1.842,68.024 2.802,68.391 3.769,68.391 L96.23,68.391 C97.197,68.391 98.157,68.024 98.895,67.286 C99.633,66.552 100,65.588 100,64.621 L100,4.77 C100,3.807 99.633,2.844 98.895,2.105 L98.895,2.105 Z M49.999,66.795 C49.075,66.795 48.33,66.048 48.33,65.128 C48.33,64.206 49.075,63.461 49.999,63.461 C50.915,63.461 51.668,64.206 51.668,65.128 C51.668,66.048 50.915,66.795 49.999,66.795 L49.999,66.795 Z M93.478,61.872 L6.521,61.872 L6.521,7.522 L93.478,7.522 L93.478,61.872 L93.478,61.872 Z"></path>
                        </g>
                        <g>
                            <path d="M62.436,78.217 L62.436,70.93 C62.436,70.525 62.284,70.121 61.971,69.808 C61.662,69.499 61.255,69.343 60.847,69.343 L39.151,69.343 C38.744,69.343 38.34,69.499 38.027,69.808 C37.714,70.121 37.565,70.524 37.565,70.93 L37.565,78.217 L29.05,82.92 C28.967,82.967 28.894,83.036 28.843,83.124 C28.788,83.215 28.763,83.313 28.763,83.409 L28.763,84.444 C28.763,84.588 28.818,84.728 28.927,84.837 C29.036,84.944 29.178,84.999 29.323,84.999 L70.677,84.999 C70.819,84.999 70.961,84.945 71.07,84.837 C71.179,84.728 71.234,84.588 71.234,84.444 L71.234,83.409 C71.234,83.313 71.209,83.215 71.158,83.124 C71.107,83.037 71.031,82.968 70.944,82.92 L62.436,78.217 L62.436,78.217 Z"></path>
                            <path d="M98.896,1.138 C98.162,0.402 97.198,0.033 96.231,0.033 L3.771,0.033 C2.804,0.033 1.844,0.402 1.106,1.138 C0.367,1.874 0,2.839 0,3.803 L0,63.654 C0,64.621 0.367,65.585 1.105,66.322 C1.843,67.056 2.803,67.426 3.77,67.426 L96.231,67.426 C97.198,67.426 98.162,67.057 98.896,66.322 C99.634,65.584 100.001,64.62 100.001,63.654 L100.001,3.803 C100.002,2.839 99.635,1.874 98.896,1.138 L98.896,1.138 Z M50.001,65.83 C49.077,65.83 48.332,65.083 48.332,64.161 C48.332,63.241 49.077,62.494 50.001,62.494 C50.917,62.494 51.666,63.241 51.666,64.161 C51.666,65.083 50.917,65.83 50.001,65.83 L50.001,65.83 Z M93.476,60.905 L6.523,60.905 L6.523,6.556 L93.476,6.556 L93.476,60.905 L93.476,60.905 Z"></path>
                        </g>
                    </g>
                    <g transform="translate(40.000000, 25.000000)" id="Shape">
                        <g transform="translate(75.000000, 0.000000)">
                            <g transform="translate(34.000000, 0.000000)">
                                <path d="M10.634,40.166 C10.634,42.835 8.467,44.998 5.799,44.998 C3.126,44.998 0.967,42.835 0.967,40.166 C0.967,37.498 3.126,35.334 5.799,35.334 C8.467,35.334 10.634,37.498 10.634,40.166 L10.634,40.166 Z"></path>
                                <path d="M10.634,5.203 C10.634,7.872 8.467,10.036 5.799,10.036 C3.126,10.036 0.967,7.872 0.967,5.203 C0.967,2.531 3.126,0.37 5.799,0.37 C8.467,0.37 10.634,2.531 10.634,5.203 L10.634,5.203 Z"></path>
                                <path d="M10.634,22.683 C10.634,25.353 8.467,27.517 5.799,27.517 C3.126,27.517 0.967,25.353 0.967,22.683 C0.967,20.016 3.126,17.85 5.799,17.85 C8.467,17.851 10.634,20.016 10.634,22.683 L10.634,22.683 Z"></path>
                            </g>
                            <path d="M4.832,10.036 C2.159,10.036 0,7.872 0,5.203 C0,2.531 2.159,0.37 4.832,0.37 C7.504,0.37 9.664,2.531 9.664,5.203 C9.664,7.872 7.504,10.036 4.832,10.036 L4.832,10.036 Z"></path>
                            <path d="M22.317,10.036 C19.648,10.036 17.481,7.872 17.481,5.203 C17.481,2.531 19.648,0.37 22.317,0.37 C24.982,0.37 27.149,2.531 27.149,5.203 C27.149,7.872 24.982,10.036 22.317,10.036 L22.317,10.036 Z"></path>
                        </g>
                        <g transform="translate(0.000000, 74.000000)">
                            <g>
                                <path d="M0.37,5.834 C0.37,3.165 2.533,0.998 5.202,0.998 C7.874,0.998 10.037,3.165 10.037,5.834 C10.037,8.505 7.874,10.666 5.202,10.666 C2.533,10.666 0.37,8.505 0.37,5.834 L0.37,5.834 Z"></path>
                                <path d="M0.37,40.797 C0.37,38.128 2.533,35.965 5.202,35.965 C7.874,35.965 10.037,38.128 10.037,40.797 C10.037,43.469 7.874,45.629 5.202,45.629 C2.533,45.629 0.37,43.469 0.37,40.797 L0.37,40.797 Z"></path>
                                <path d="M0.37,23.315 C0.37,20.646 2.533,18.483 5.202,18.483 C7.874,18.483 10.037,20.646 10.037,23.315 C10.037,25.984 7.874,28.149 5.202,28.149 C2.533,28.149 0.37,25.984 0.37,23.315 L0.37,23.315 Z"></path>
                            </g>
                            <path d="M40.168,35.965 C42.837,35.965 45,38.128 45,40.797 C45,43.469 42.837,45.629 40.168,45.629 C37.499,45.629 35.336,43.469 35.336,40.797 C35.336,38.128 37.499,35.965 40.168,35.965 L40.168,35.965 Z"></path>
                            <path d="M22.687,35.965 C25.356,35.965 27.519,38.128 27.519,40.797 C27.519,43.469 25.356,45.629 22.687,45.629 C20.015,45.629 17.855,43.469 17.855,40.797 C17.854,38.128 20.014,35.965 22.687,35.965 L22.687,35.965 Z"></path>
                        </g>
                    </g>
                </g>
            </g>
        </g>
    </g>
</svg>