<?xml version="1.0" encoding="UTF-8"?>
<svg width="270px" height="314px" viewBox="0 0 270 314" version="1.1" xmlns="http://www.w3.org/2000/svg" xmlns:xlink="http://www.w3.org/1999/xlink">
    <!-- Generator: Sketch 40 (33762) - http://www.bohemiancoding.com/sketch -->
    <title>1486922172_Internet_database_server_hosting_network</title>
    <desc>Created with Sketch.</desc>
    <defs></defs>
    <g id="Page-1" stroke="none" stroke-width="1" fill="none" fill-rule="evenodd">
        <g id="1486922172_Internet_database_server_hosting_network" fill="#6378E7">
            <g id="Layer_1">
                <g id="Group">
                    <circle id="Oval" cx="196.4" cy="47.9" r="14.4"></circle>
                    <rect id="Rectangle-path" x="62.4" y="42.9" width="27.8" height="10"></rect>
                    <circle id="Oval" cx="196.4" cy="124" r="14.4"></circle>
                    <rect id="Rectangle-path" x="62.4" y="119" width="27.8" height="10"></rect>
                    <path d="M53.9,246.7 L216.1,246.7 C234.8,246.7 250,231.5 250,212.8 L250,185.4 C250,176.1 246.2,167.7 240.2,161.6 C246.3,155.5 250,147 250,137.8 L250,110.4 C250,100.8 246,92.2 239.6,86 C246,79.8 250,71.2 250,61.6 L250,34.2 C250,15.5 234.8,0.3 216.1,0.3 L53.9,0.3 C35.2,0.3 20,15.5 20,34.2 L20,61.6 C20,71.2 24,79.8 30.4,86 C24,92.1 20,100.8 20,110.3 L20,137.7 C20,147 23.8,155.4 29.8,161.5 C23.7,167.6 20,176.1 20,185.3 L20,212.7 C20,231.5 35.2,246.7 53.9,246.7 L53.9,246.7 Z M230,212.8 C230,220.5 223.8,226.7 216.1,226.7 L53.9,226.7 C46.2,226.7 40,220.5 40,212.8 L40,185.4 C40,178.1 45.6,172.1 52.8,171.6 L53.9,171.6 L216.1,171.6 L217.2,171.6 C224.3,172.2 230,178.1 230,185.4 L230,212.8 L230,212.8 Z M40,137.7 L40,110.3 C40,102.6 46.2,96.4 53.9,96.4 L216.1,96.4 C223.8,96.4 230,102.6 230,110.3 L230,137.7 C230,145 224.4,151 217.2,151.5 L216.1,151.5 L53.9,151.5 L52.8,151.5 C45.6,151 40,145 40,137.7 L40,137.7 Z M40,34.2 C40,26.5 46.2,20.3 53.9,20.3 L216.1,20.3 C223.8,20.3 230,26.5 230,34.2 L230,61.6 C230,69.3 223.8,75.5 216.1,75.5 L53.9,75.5 C46.2,75.5 40,69.3 40,61.6 L40,34.2 L40,34.2 Z" id="Shape"></path>
                    <circle id="Oval" cx="196.4" cy="199.1" r="14.4"></circle>
                    <rect id="Rectangle-path" x="62.4" y="194.1" width="27.8" height="10"></rect>
                    <path d="M259.2,293.7 L145,293.7 L145,264.7 C145,259.2 140.5,254.7 135,254.7 C129.5,254.7 125,259.2 125,264.7 L125,293.7 L10.8,293.7 C5.3,293.7 0.8,298.2 0.8,303.7 C0.8,309.2 5.3,313.7 10.8,313.7 L259.1,313.7 C264.6,313.7 269.1,309.2 269.1,303.7 C269.1,298.2 264.7,293.7 259.2,293.7 L259.2,293.7 Z" id="Shape"></path>
                </g>
            </g>
        </g>
    </g>
</svg>