<?xml version="1.0" encoding="UTF-8" standalone="no"?>
<svg width="200px" height="180px" viewBox="0 0 200 180" version="1.1" xmlns="http://www.w3.org/2000/svg" xmlns:xlink="http://www.w3.org/1999/xlink">
    <!-- Generator: Sketch 39.1 (31720) - http://www.bohemiancoding.com/sketch -->
    <title>1473598790_vector_66_01</title>
    <desc>Created with Sketch.</desc>
    <defs></defs>
    <g id="Page-1" stroke="none" stroke-width="1" fill="none" fill-rule="evenodd">
        <g id="1473598790_vector_66_01" fill="#6C69EA">
            <g id="Layer_1">
                <g id="Group">
                    <path d="M179.65,38.185 C179.65,36.478 178.959,34.934 177.84,33.815 L146.007,1.982 C144.889,0.865 143.344,0.172 141.64,0.172 C139.933,0.172 138.388,0.865 137.268,1.982 L112.304,26.95 C111.825,27.429 111.528,28.094 111.528,28.824 C111.528,29.554 111.826,30.217 112.304,30.696 L149.129,67.521 C149.609,68.001 150.272,68.299 151.004,68.299 C151.734,68.299 152.396,68.001 152.876,67.521 L177.841,42.556 C178.959,41.437 179.65,39.892 179.65,38.185 L179.65,38.185 Z M140.078,31.008 C139.393,31.694 138.267,31.694 137.584,31.008 L130.716,24.142 C130.03,23.454 130.03,22.332 130.716,21.644 L134.459,17.899 C135.149,17.213 136.273,17.213 136.957,17.899 L143.825,24.767 C144.511,25.453 144.511,26.578 143.825,27.263 L140.078,31.008 L140.078,31.008 Z M158.179,49.109 C157.493,49.795 156.369,49.795 155.685,49.109 L148.818,42.241 C148.133,41.555 148.131,40.432 148.818,39.745 L152.565,36.001 C153.249,35.313 154.375,35.313 155.059,36.001 L161.926,42.867 C162.613,43.553 162.613,44.675 161.926,45.363 L158.179,49.109 L158.179,49.109 Z" id="Shape"></path>
                    <path d="M156.461,84.687 C156.461,83.955 156.161,83.292 155.685,82.815 L97.012,24.142 C96.532,23.664 95.871,23.366 95.14,23.368 C94.408,23.366 93.745,23.664 93.266,24.142 L7.755,109.651 C2.963,114.444 0,121.065 0,128.377 C0,135.69 2.963,142.311 7.755,147.104 L32.724,172.071 C37.515,176.863 44.136,179.828 51.448,179.828 C58.761,179.828 65.38,176.863 70.174,172.071 L155.685,86.559 C156.161,86.078 156.461,85.417 156.461,84.687 L156.461,84.687 Z M39.484,159.066 C38.798,159.751 37.674,159.751 36.986,159.066 L20.76,142.837 C20.072,142.151 20.072,141.027 20.76,140.339 L24.505,136.596 C25.191,135.91 26.313,135.908 27.001,136.596 L43.227,152.824 C43.915,153.511 43.915,154.637 43.227,155.32 L39.484,159.066 L39.484,159.066 Z" id="Shape"></path>
                    <path d="M199.224,109.986 C198.707,109.467 198.029,109.21 197.353,109.21 L171.312,109.21 L171.312,112.741 C171.312,113.418 171.054,114.095 170.536,114.611 C170.018,115.128 169.341,115.385 168.664,115.385 L143.067,115.385 C142.388,115.385 141.71,115.127 141.193,114.611 C140.676,114.095 140.417,113.418 140.417,112.741 L140.417,110.562 L111.73,139.251 L111.73,153.344 C111.73,160.119 114.314,166.899 119.485,172.07 C124.656,177.241 131.435,179.827 138.211,179.827 L173.518,179.827 C180.297,179.827 187.073,177.241 192.242,172.07 C197.416,166.899 200.002,160.12 200.002,153.344 L200.002,111.857 C200,111.18 199.74,110.501 199.224,109.986 L199.224,109.986 Z" id="Shape"></path>
                </g>
            </g>
        </g>
    </g>
</svg>