<?xml version="1.0" encoding="UTF-8" standalone="no"?>
<svg width="72px" height="72px" viewBox="0 0 72 72" version="1.1" xmlns="http://www.w3.org/2000/svg" xmlns:xlink="http://www.w3.org/1999/xlink">
    <!-- Generator: Sketch 39.1 (31720) - http://www.bohemiancoding.com/sketch -->
    <title>station</title>
    <desc>Created with Sketch.</desc>
    <defs></defs>
    <g id="Page-1" stroke="none" stroke-width="1" fill="none" fill-rule="evenodd">
        <g id="station" transform="translate(0.000000, -1.000000)" fill="#6B69EA">
            <g id="svg6584">
                <g id="layer1" transform="translate(0.000000, 0.638000)">
                    <path d="M36.000003,0.94535 L21.416663,21.77867 L13.083333,9.27868 C10.321713,14.13381 0.583333,25.94533 0.583333,38.4453 C0.583333,56.8548 17.590503,71.7787 36.000003,71.7787 C54.4095,71.7787 71.416667,56.8548 71.416667,38.4453 C71.416667,25.94533 61.678292,14.13381 58.916667,9.27868 L50.583333,21.77867 L36.000003,0.94535 Z M36.000003,34.2787 C36.000003,34.2787 50.583333,45.4645 50.583333,55.112 C50.583333,59.2787 44.333333,63.4453 36.000003,63.4453 C27.666663,63.4453 21.416663,59.2787 21.416663,55.112 C21.416663,45.795 36.000003,34.2787 36.000003,34.2787 L36.000003,34.2787 Z" id="path10041-3"></path>
                </g>
            </g>
        </g>
    </g>
</svg>