<?xml version="1.0" encoding="UTF-8"?>
<svg width="20px" height="20px" viewBox="0 0 20 20" version="1.1" xmlns="http://www.w3.org/2000/svg" xmlns:xlink="http://www.w3.org/1999/xlink">
    <!-- Generator: Sketch 40 (33762) - http://www.bohemiancoding.com/sketch -->
    <title>policies_4_</title>
    <desc>Created with Sketch.</desc>
    <defs></defs>
    <g id="Page-1" stroke="none" stroke-width="1" fill="none" fill-rule="evenodd">
        <g id="RESEC_Dashboard_8" transform="translate(-28.000000, -161.000000)">
            <g id="RESEC_Dashboard_1_">
                <g id="left_nav_bar_1_">
                    <g id="icons_9_" transform="translate(28.000000, 160.000000)">
                        <g id="policies_4_">
                            <g id="policies_1_" fill="#23CCC7">
                                <path d="M12,1 L12,9 L13,7 L15,9 L15,1 L12,1 L12,1 Z M0,3.583 L0,18.417 C0,19.838 1.038,21 2.458,21 C2.689,21 3,20.959 3,20.901 L3,1.098 C3,1.04 2.69,0.999 2.458,0.999 C1.038,1 0,2.162 0,3.583 L0,3.583 Z" id="Shape"></path>
                            </g>
                            <g id="policies_2_" transform="translate(5.000000, 1.000000)" fill="#E5E5E5">
                                <polygon id="Shape" points="12 0 12 17 3 17 3 3 5 3 5 0 3.5 0 2.5 0 0 0 0 20 15 20 15 0"></polygon>
                            </g>
                        </g>
                    </g>
                </g>
            </g>
        </g>
    </g>
</svg>