<?xml version="1.0" encoding="UTF-8"?>
<svg width="18px" height="18px" viewBox="0 0 18 18" version="1.1" xmlns="http://www.w3.org/2000/svg" xmlns:xlink="http://www.w3.org/1999/xlink">
    <!-- Generator: Sketch 40 (33762) - http://www.bohemiancoding.com/sketch -->
    <title>settings</title>
    <desc>Created with Sketch.</desc>
    <defs></defs>
    <g id="Page-1" stroke="none" stroke-width="1" fill="none" fill-rule="evenodd">
        <g id="settings">
            <g id="ic_settings_applications_black_24px">
                <g id="Page-1">
                    <g id="ic_settings_applications_black_24px">
                        <g id="Group">
                            <polygon id="Shape" points="1 1 17 1 17 17 1 17"></polygon>
                            <path d="M9,7 C7.9,7 7,7.9 7,9 C7,10.1 7.9,11 9,11 C10.1,11 11,10.1 11,9 C11,7.9 10.1,7 9,7 L9,7 L9,7 Z M16,0 L2,0 C0.89,0 0,0.9 0,2 L0,16 C0,17.1 0.89,18 2,18 L16,18 C17.11,18 18,17.1 18,16 L18,2 C18,0.9 17.11,0 16,0 L16,0 L16,0 Z M14.25,9 C14.25,9.23 14.23,9.46 14.2,9.68 L15.68,10.84 C15.81,10.95 15.85,11.14 15.76,11.29 L14.36,13.71 C14.27,13.86 14.09,13.92 13.93,13.86 L12.19,13.16 C11.83,13.44 11.43,13.67 11.01,13.85 L10.75,15.7 C10.72,15.87 10.57,16 10.4,16 L7.6,16 C7.43,16 7.28,15.87 7.25,15.71 L6.99,13.86 C6.56,13.68 6.17,13.45 5.81,13.17 L4.07,13.87 C3.91,13.93 3.73,13.87 3.64,13.72 L2.24,11.3 C2.15,11.15 2.19,10.96 2.32,10.85 L3.8,9.69 C3.77,9.46 3.75,9.23 3.75,9 C3.75,8.77 3.77,8.54 3.8,8.32 L2.32,7.16 C2.19,7.05 2.15,6.86 2.24,6.71 L3.64,4.29 C3.73,4.14 3.91,4.08 4.07,4.14 L5.81,4.84 C6.17,4.56 6.57,4.33 6.99,4.15 L7.25,2.3 C7.28,2.13 7.43,2 7.6,2 L10.4,2 C10.57,2 10.72,2.13 10.75,2.29 L11.01,4.14 C11.44,4.32 11.83,4.55 12.19,4.83 L13.93,4.13 C14.09,4.07 14.27,4.13 14.36,4.28 L15.76,6.7 C15.85,6.85 15.81,7.04 15.68,7.15 L14.2,8.31 C14.23,8.54 14.25,8.77 14.25,9 L14.25,9 L14.25,9 Z" id="Shape" fill="#FFFFFF"></path>
                        </g>
                    </g>
                </g>
            </g>
        </g>
    </g>
</svg>