<?xml version="1.0" encoding="UTF-8"?>
<svg width="20px" height="17px" viewBox="0 0 20 17" version="1.1" xmlns="http://www.w3.org/2000/svg" xmlns:xlink="http://www.w3.org/1999/xlink">
    <!-- Generator: Sketch 40 (33762) - http://www.bohemiancoding.com/sketch -->
    <title>cases_1_</title>
    <desc>Created with Sketch.</desc>
    <defs></defs>
    <g id="Page-1" stroke="none" stroke-width="1" fill="none" fill-rule="evenodd">
        <g id="dashboard" transform="translate(-1328.000000, -12.000000)" fill="#E1E8F6">
            <g id="My_cases_panel_close_1_" transform="translate(1270.000000, 0.000000)">
                <g id="cases_1_" transform="translate(58.000000, 12.000000)">
                    <path d="M0,7 L2.098,15.24 C2.332,16.409 3.358,17 4.549,17 L15.45,17 C16.641,17 17.668,16.409 17.901,15.24 L20,7 L0,7 L0,7 Z M13,13 L7,13 L7,11 L13,11 L13,13 L13,13 Z M17,1 C17,0.447 16.802,0 16.25,0 L3.75,0 C3.197,0 3,0.447 3,1 L3,2 L17,2 L17,1 L17,1 Z M19,4 C19,3.447 18.802,3 18.25,3 L1.75,3 C1.197,3 1,3.447 1,4 L1,5 L19,5 L19,4 L19,4 Z" id="Shape"></path>
                </g>
            </g>
        </g>
    </g>
</svg>