<?xml version="1.0" encoding="UTF-8" standalone="no"?>
<svg width="37px" height="42px" viewBox="0 0 37 42" version="1.1" xmlns="http://www.w3.org/2000/svg" xmlns:xlink="http://www.w3.org/1999/xlink">
    <!-- Generator: Sketch 39.1 (31720) - http://www.bohemiancoding.com/sketch -->
    <title>Layer_1</title>
    <desc>Created with Sketch.</desc>
    <defs></defs>
    <g id="Page-1" stroke="none" stroke-width="1" fill="none" fill-rule="evenodd">
        <g id="Layer_1">
            <g id="Group" opacity="0.2" transform="translate(5.000000, 6.000000)" fill="#231F20">
                <g transform="translate(13.000000, 0.000000)" id="Shape">
                    <path d="M5.609,4 L5.609,0.344 C5.591,1.238 1.706,3.62 0.435,4.451 C0.892,4.17 1.424,4 2,4 L5.609,4 L5.609,4 Z"></path>
                </g>
                <g id="Shape">
                    <path d="M18.609,0.344 C18.614,0.129 18.394,0 17.858,0 L4,0 L3,0 L0,0 L0,3 L0,17 L0,20 L3,20 L4,20 L12,20 L12,7 C12,6.763 12.029,6.534 12.081,6.312 C12.231,5.674 12.582,5.114 13.066,4.706 C13.498,4.342 18.589,1.367 18.609,0.344 L18.609,0.344 Z"></path>
                </g>
            </g>
            <g id="Group" transform="translate(5.000000, 4.000000)">
                <path d="M18.609,4 L18.609,0.344 C18.591,1.238 14.706,3.62 13.435,4.451 C13.892,4.17 14.424,4 15,4 L18.609,4 L18.609,4 Z" id="Shape" fill="#76C2AF"></path>
                <path d="M18.609,0.344 C18.614,0.129 18.394,0 17.858,0 L4,0 L3,0 L0,0 L0,3 L0,17 L0,20 L3,20 L4,20 L12,20 L12,7 C12,6.763 12.029,6.534 12.081,6.312 C12.231,5.674 12.582,5.114 13.066,4.706 C13.498,4.342 18.589,1.367 18.609,0.344 L18.609,0.344 Z" id="Shape" fill="#C75C5C"></path>
            </g>
            <g id="Group" opacity="0.2" transform="translate(16.000000, 7.000000)" fill="#231F20">
                <path d="M18,1 L7.609,1 L7.609,0 L3,0 C1.343,0 0,1.343 0,3 L0,19 L0,20 C0,21.657 1.343,23 3,23 L18,23 C19.657,23 21,21.657 21,20 L21,4 C21,2.343 19.657,1 18,1 L18,1 Z" id="Shape"></path>
            </g>
            <path d="M34,8 L25,8 L20,8 C18.343,8 17,9.343 17,11 L17,24 L17,25 C17,26.657 18.343,28 20,28 L34,28 C35.657,28 37,26.657 37,25 L37,11 C37,9.343 35.657,8 34,8 L34,8 Z" id="Shape" fill="#C75C5C"></path>
            <g id="Group" opacity="0.2" transform="translate(1.000000, 4.000000)" fill="#231F20">
                <path d="M4,36 C4,37.105 3.105,38 2,38 L2,38 C0.895,38 0,37.105 0,36 L0,2 C0,0.895 0.895,0 2,0 L2,0 C3.105,0 4,0.895 4,2 L4,36 L4,36 Z" id="Shape"></path>
            </g>
            <path d="M5,38 C5,39.105 4.105,40 3,40 L3,40 C1.895,40 1,39.105 1,38 L1,4 C1,2.895 1.895,2 3,2 L3,2 C4.105,2 5,2.895 5,4 L5,38 L5,38 Z" id="Shape" fill="#E0995E"></path>
            <g id="Group" opacity="0.2" transform="translate(0.000000, 2.000000)" fill="#231F20">
                <circle id="Oval" cx="3" cy="3" r="3"></circle>
            </g>
            <circle id="Oval" fill="#E0995E" cx="3" cy="3" r="3"></circle>
        </g>
    </g>
</svg>