<?xml version="1.0" encoding="UTF-8"?>
<svg width="78px" height="78px" viewBox="0 0 78 78" version="1.1" xmlns="http://www.w3.org/2000/svg" xmlns:xlink="http://www.w3.org/1999/xlink">
    <!-- Generator: Sketch 40 (33762) - http://www.bohemiancoding.com/sketch -->
    <title>1488831784_internt_web_technology-13</title>
    <desc>Created with Sketch.</desc>
    <defs></defs>
    <g id="Page-1" stroke="none" stroke-width="1" fill="none" fill-rule="evenodd">
        <g id="1488831784_internt_web_technology-13" fill="#333F4F">
            <g id="Layer_1">
                <path d="M52.5,33.529 L52.5,30.529 C52.5,23.104 46.425,17.029 39,17.029 C31.575,17.029 25.5,23.104 25.5,30.529 L25.5,33.529 C25.5,40.954 31.575,47.029 39,47.029 C46.425,47.029 52.5,40.954 52.5,33.529 L52.5,33.529 Z M39,0.03 C17.46,0.03 0,17.49 0,39.03 C0,50.33 4.8,60.51 12.48,67.62 C19.407,74.054 28.084,77.511 36.83,77.971 L30.98,72.34 L36.969,58.851 L30.57,53.741 L13.049,59.391 C8.63,53.78 6,46.71 6,39.03 C6,20.83 20.8,6.03 39,6.03 C57.2,6.03 72,20.83 72,39.03 C72,46.7 69.37,53.77 64.96,59.38 L47.43,53.74 L41.02,58.85 L47.01,72.339 L41.16,77.97 C50.151,77.496 58.753,73.904 65.519,67.619 C73.2,60.511 78,50.33 78,39.03 C78,17.49 60.54,0.03 39,0.03 L39,0.03 Z" id="Shape"></path>
            </g>
        </g>
    </g>
</svg>