<?xml version="1.0" encoding="UTF-8" standalone="no"?>
<svg width="46px" height="51px" viewBox="0 0 46 51" version="1.1" xmlns="http://www.w3.org/2000/svg" xmlns:xlink="http://www.w3.org/1999/xlink">
    <!-- Generator: Sketch 39.1 (31720) - http://www.bohemiancoding.com/sketch -->
    <title>Shape</title>
    <desc>Created with Sketch.</desc>
    <defs></defs>
    <g id="Page-1" stroke="none" stroke-width="1" fill="none" fill-rule="evenodd">
        <g id="RESEC_Dashboard_8" transform="translate(-639.000000, -216.000000)" fill="#6B69EA">
            <g id="RESEC_Dashboard_1_">
                <g id="RESEC_ixons_1_" transform="translate(598.000000, 193.000000)">
                    <g id="icons_6_" transform="translate(30.000000, 23.000000)">
                        <g id="Shape_71" transform="translate(10.000000, 0.000000)">
                            <path d="M11.082,13.106 L11.082,8.628 C11.082,8.374 10.877,8.17 10.624,8.17 C10.371,8.17 10.166,8.374 10.166,8.628 L10.166,13.106 C10.166,13.818 9.532,14.202 8.489,14.75 C8.282,14.858 8.076,14.967 7.9,15.068 L4.706,16.712 C4.481,16.828 4.393,17.105 4.509,17.329 C4.59,17.486 4.751,17.577 4.917,17.577 C4.987,17.577 5.06,17.56 5.126,17.526 L8.34,15.872 C8.526,15.766 8.721,15.663 8.916,15.56 C9.932,15.026 11.082,14.422 11.082,13.106 L11.082,13.106 Z M43.165,39.064 L40.473,37.038 C41.224,36.071 41.905,35.067 42.501,34.036 C45.024,29.67 45.47,25.418 43.726,22.357 C43.284,21.346 41.959,19.904 39.837,18.115 C39.515,17.799 39.165,17.511 38.797,17.262 C37.234,16.205 35.237,15.67 32.86,15.67 C28.806,15.67 24.322,17.291 20.25,19.975 L20.25,3.21 C20.25,1.934 19.711,0.861 18.81,0.342 C18.008,-0.12 17.02,-0.081 16.114,0.442 L7.463,5.227 C6.766,5.629 6.431,6.2 6.123,6.726 L1.636,14.906 C1.216,15.625 0.999,17.319 0.999,17.885 L0.999,38.249 C0.999,39.552 1.522,40.63 2.398,41.136 C2.752,41.34 3.14,41.442 3.544,41.442 C4.023,41.442 4.523,41.298 5.019,41.013 L8.525,39.03 C8.638,39.631 8.784,40.231 8.998,40.832 C9.032,40.927 9.075,41.015 9.111,41.107 L2.755,45.561 C2.173,45.894 1.917,46.511 1.917,47.18 C1.917,47.18 3.538,51.632 4.783,50.909 L12.918,45.981 L12.918,45.979 C14.751,47.871 17.61,48.785 19.398,48.785 C24.093,48.785 29.336,46.691 33.938,43.37 L39.464,46.896 C40.834,47.763 42.25,48.225 43.495,48.225 C43.938,48.225 44.348,48.166 44.731,48.046 C45.589,47.777 46.21,47.228 46.537,46.457 L46.769,45.903 C46.769,45.903 46.768,45.903 46.768,45.902 C47.622,43.886 46.01,40.862 43.165,39.064 L43.165,39.064 Z M8.316,37.04 L4.107,39.422 C3.877,39.555 3.552,39.686 3.314,39.549 C3.091,39.42 2.832,39.003 2.832,38.248 L2.832,17.884 C2.832,17.342 3.066,16.094 3.23,15.807 L7.716,7.628 C7.968,7.197 8.112,6.966 8.363,6.821 L17.014,2.036 C17.257,1.896 17.607,1.763 17.891,1.928 C18.209,2.112 18.414,2.615 18.414,3.21 L18.414,21.265 L18.442,21.265 C15.183,23.747 12.29,26.897 10.254,30.419 C8.95,32.679 8.308,34.869 8.316,37.04 L8.316,37.04 Z M19.235,46.952 C16.672,46.952 12.291,44.611 10.723,40.216 C10.066,38.372 9.468,35.445 11.844,31.334 C16.402,23.449 25.437,17.502 32.86,17.502 C34.865,17.502 36.515,17.932 37.769,18.779 C38.044,18.965 38.306,19.18 38.601,19.467 C40.478,21.053 41.77,22.415 42.054,23.113 C42.071,23.152 42.089,23.19 42.11,23.226 C43.549,25.707 43.113,29.314 40.913,33.121 C36.504,40.747 26.779,46.952 19.235,46.952 L19.235,46.952 Z M44.986,45.149 L44.752,45.704 C44.714,45.792 44.602,46.059 44.144,46.203 C43.248,46.483 41.801,46.115 40.457,45.265 L35.61,42.195 C36.995,41.072 38.344,39.893 39.435,38.674 L42.065,40.651 C44.244,42.029 45.404,44.163 44.986,45.149 L44.986,45.149 Z M33.556,22.766 C27.577,22.766 19.933,27.607 16.482,33.579 C13.03,39.551 15.079,44.392 21.056,44.392 C27.035,44.392 34.679,39.551 38.131,33.579 C41.583,27.607 39.534,22.766 33.556,22.766 L33.556,22.766 Z M36.333,32.541 C33.27,37.841 26.274,42.317 21.056,42.317 C20.883,42.317 20.702,42.31 20.517,42.298 L28.704,37.394 C29.53,36.914 29.418,36.03 29.418,35.077 L29.418,32.209 C29.418,30.15 27.812,28.859 26.022,29.883 L18.418,34.394 C21.545,29.193 28.41,24.839 33.556,24.839 C34.85,24.839 36.554,25.116 37.318,26.439 C38.114,27.816 37.746,30.098 36.333,32.541 L36.333,32.541 Z" id="Shape"></path>
                        </g>
                    </g>
                </g>
            </g>
        </g>
    </g>
</svg>