<?xml version="1.0" encoding="UTF-8" standalone="no"?>
<svg width="20px" height="20px" viewBox="0 0 20 20" version="1.1" xmlns="http://www.w3.org/2000/svg" xmlns:xlink="http://www.w3.org/1999/xlink">
    <!-- Generator: Sketch 39.1 (31720) - http://www.bohemiancoding.com/sketch -->
    <title>editMode</title>
    <desc>Created with Sketch.</desc>
    <defs></defs>
    <g id="Page-1" stroke="none" stroke-width="1" fill="none" fill-rule="evenodd">
        <g id="editMode">
            <g id="Layer_1">
                <path d="M2.73029296,17.2153428 L17.2274237,17.2153428 L17.2274237,10.8728481 L19.9456358,8.12020538 L19.9456358,18.1214135 C19.9456358,19.1226216 19.1337964,19.9335548 18.1334944,19.9335548 L1.82422229,19.9335548 C0.823920266,19.9335548 0.0120809423,19.1226216 0.0120809423,18.1214135 L0.0120809423,1.81214135 C0.0120809423,0.811839323 0.823920266,0 1.82422229,0 L11.8000604,0 L9.08094231,2.71821202 L2.73029296,2.71821202 L2.73029296,17.2153428 Z" id="Shape" fill="#292788"></path>
                <path d="M9.63515554,13.9217759 C9.21202054,13.2231954 8.69012383,12.5363938 8.051344,11.9021444 C7.40622169,11.2597403 6.70854727,10.7351253 5.99546965,10.3128964 L14.025974,2.2832981 C14.7626095,2.63032317 15.4947146,3.1205074 16.153428,3.77922078 C16.8139535,4.43884023 17.3032317,5.17094533 17.6502567,5.90758079 L9.63515554,13.9217759 Z" id="Path" fill="#6B69EA"></path>
                <path d="M8.15463606,15.4032014 L4.53035337,15.4032014 L4.53035337,11.7789188 L4.96526729,11.3440048 C5.70190275,11.692842 6.43400785,12.1830263 7.09272123,12.8408336 C7.75234068,13.5013591 8.24161885,14.2316521 8.58954998,14.9682875 L8.15463606,15.4032014 L8.15463606,15.4032014 Z" id="Path" fill="#6B69EA"></path>
                <path d="M18.6967683,4.86197523 C18.2736333,4.16248867 17.7517366,3.47749924 17.1129568,2.8423437 C16.4669284,2.20084567 15.7701601,1.67532468 15.0570825,1.25309574 L16.3092721,0 C16.3092721,0 18.1214135,0 19.0274841,0.906070674 C19.9335548,1.81214135 19.9335548,3.62428269 19.9335548,3.62428269 L18.6967683,4.86197523 L18.6967683,4.86197523 Z" id="Path" fill="#6B69EA"></path>
            </g>
        </g>
    </g>
</svg>