<?xml version="1.0" encoding="UTF-8" standalone="no"?>
<svg width="370px" height="431px" viewBox="0 0 370 431" version="1.1" xmlns="http://www.w3.org/2000/svg" xmlns:xlink="http://www.w3.org/1999/xlink">
    <!-- Generator: Sketch 39.1 (31720) - http://www.bohemiancoding.com/sketch -->
    <title>1473598695_050_Disk2</title>
    <desc>Created with Sketch.</desc>
    <defs></defs>
    <g id="Page-1" stroke="none" stroke-width="1" fill="none" fill-rule="evenodd">
        <g id="1473598695_050_Disk2" fill="#6C69EA">
            <g id="Group">
                <g id="Icons-with-numbers">
                    <g id="Group">
                        <path d="M31.5384615,61.5384615 C31.5384615,27.5517077 59.0901846,0 93.0769231,0 L277.692308,0 C311.679046,0 339.230769,27.5517077 339.230769,61.5384615 L369.249169,331.704185 C366.131415,317.963169 353.687354,307.692308 339.154677,307.692308 L31.6145538,307.692308 C14.5791692,307.692308 0.769230769,321.312615 0.769230769,338.429446 L0.769230769,338.461538 L0.295969231,338.461538 L31.5384615,61.5384615 Z M46.786,338.461538 C21.3716308,338.461538 0.769230769,358.9476 0.769230769,384.615385 L0.769230769,384.615385 C0.769230769,410.105446 21.6785846,430.769231 46.786,430.769231 L323.983231,430.769231 C349.3976,430.769231 370,410.283169 370,384.615385 L370,384.615385 C370,359.125323 349.090646,338.461538 323.983231,338.461538 L46.786,338.461538 L46.786,338.461538 Z M62.3076923,369.230769 L62.3076923,400 L308.461538,400 L308.461538,369.230769 L62.3076923,369.230769 L62.3076923,369.230769 Z" id="Rectangle-222-copy"></path>
                    </g>
                </g>
            </g>
        </g>
    </g>
</svg>