<?xml version="1.0" encoding="UTF-8" standalone="no"?>
<svg width="512px" height="512px" viewBox="0 0 512 512" version="1.1" xmlns="http://www.w3.org/2000/svg" xmlns:xlink="http://www.w3.org/1999/xlink">
    <!-- Generator: Sketch 39.1 (31720) - http://www.bohemiancoding.com/sketch -->
    <title>1473263120_web</title>
    <desc>Created with Sketch.</desc>
    <defs></defs>
    <g id="Page-1" stroke="none" stroke-width="1" fill="none" fill-rule="evenodd">
        <g id="1473263120_web" fill="#6B69EA">
            <g id="Layer_1">
                <path d="M255.982,0 C114.63,0 0.002,114.593 0.002,255.982 C0.002,397.392 114.63,512 255.982,512 C397.411,512 511.999,397.392 511.999,255.982 C511.999,114.593 397.411,0 255.982,0 L255.982,0 Z M237.963,142.775 C212.666,141.195 188.639,136.31 166.614,128.686 C184.325,92.628 209.159,63.346 237.963,44.244 L237.963,142.775 L237.963,142.775 Z M237.963,178.935 L237.963,237.944 L138.389,237.944 C139.968,211.11 145.05,185.615 152.868,162.127 C179.243,171.465 207.892,177.238 237.963,178.935 L237.963,178.935 Z M237.963,274.024 L237.963,332.431 C207.736,334.145 178.974,339.996 152.482,349.431 C144.78,326.017 139.853,300.688 138.389,274.024 L237.963,274.024 L237.963,274.024 Z M237.963,368.608 L237.963,468.527 C208.815,449.214 183.788,419.526 166.035,382.971 C188.215,375.192 212.434,370.228 237.963,368.608 L237.963,368.608 Z M274.041,368.608 C299.57,370.227 323.789,375.192 345.968,382.971 C328.218,419.526 303.154,449.259 274.041,468.565 L274.041,368.608 L274.041,368.608 Z M274.041,332.432 L274.041,274.025 L373.613,274.025 C372.148,300.689 367.22,326.018 359.521,349.432 C333.069,339.997 304.267,334.146 274.041,332.432 L274.041,332.432 Z M274.041,237.944 L274.041,178.935 C304.075,177.238 332.76,171.465 359.137,162.127 C366.951,185.615 371.994,211.11 373.575,237.944 L274.041,237.944 L274.041,237.944 Z M274.041,142.775 L274.041,44.244 C302.882,63.346 327.678,92.628 345.39,128.646 C323.365,136.27 299.341,141.195 274.041,142.775 L274.041,142.775 Z M336.806,51.542 C363.102,61.977 386.936,77.323 407.151,96.494 C398.334,103.005 388.786,109.012 378.619,114.358 C367.299,90.911 353.209,69.757 336.806,51.542 L336.806,51.542 Z M133.345,114.358 C123.179,109.012 113.668,103.005 104.849,96.494 C125.063,77.323 148.861,61.939 175.16,51.542 C158.796,69.757 144.703,90.911 133.345,114.358 L133.345,114.358 Z M119.638,147.799 C110.013,175.81 104.042,206.177 102.346,237.944 L36.894,237.944 C40.356,195.184 56.144,155.79 80.671,123.412 C92.643,132.515 105.659,140.736 119.638,147.799 L119.638,147.799 Z M102.274,274.024 C103.89,305.613 109.782,335.883 119.216,363.755 C105.314,370.877 92.336,379.078 80.401,388.205 C55.988,355.86 40.356,316.667 36.894,274.023 L102.274,274.023 L102.274,274.024 Z M132.843,397.331 C144.01,420.665 157.911,441.804 174.084,460.058 C148.055,449.525 124.489,434.224 104.505,415.156 C113.245,408.69 122.678,402.665 132.843,397.331 L132.843,397.331 Z M379.158,397.331 C389.286,402.665 398.754,408.69 407.459,415.178 C387.516,434.224 363.948,449.525 337.921,460.016 C354.092,441.804 367.991,420.667 379.158,397.331 L379.158,397.331 Z M392.791,363.756 C402.222,335.884 408.072,305.652 409.729,274.025 L475.112,274.025 C471.644,316.669 456.013,355.862 431.601,388.207 C419.665,379.078 406.652,370.876 392.791,363.756 L392.791,363.756 Z M409.653,237.944 C407.959,206.178 401.993,175.81 392.405,147.799 C406.343,140.736 419.358,132.514 431.292,123.411 C455.861,155.789 471.61,195.145 475.112,237.943 L409.653,237.943 L409.653,237.944 Z" id="Shape"></path>
            </g>
        </g>
    </g>
</svg>