<?xml version="1.0" encoding="UTF-8" standalone="no"?>
<svg width="496px" height="512px" viewBox="0 0 496 512" version="1.1" xmlns="http://www.w3.org/2000/svg" xmlns:xlink="http://www.w3.org/1999/xlink">
    <!-- Generator: Sketch 39.1 (31720) - http://www.bohemiancoding.com/sketch -->
    <title>1473678820_share</title>
    <desc>Created with Sketch.</desc>
    <defs></defs>
    <g id="Page-1" stroke="none" stroke-width="1" fill="none" fill-rule="evenodd">
        <g id="1473678820_share" transform="translate(248.000000, 256.000000) rotate(270.000000) translate(-248.000000, -256.000000) translate(-8.000000, 8.000000)" fill="#6B69E9">
            <g id="Layer_1">
                <g id="Group">
                    <path d="M94,342 C42.2,342 0,299.8 0,248 C0,196.2 42.2,154 94,154 C145.8,154 188,196.2 188,248 C188,299.8 145.8,342 94,342 L94,342 Z M94,175.1 C53.8,175.1 21.1,207.8 21.1,248 C21.1,288.2 53.8,320.9 94,320.9 C134.2,320.9 166.9,288.2 166.9,248 C166.9,207.8 134.2,175.1 94,175.1 L94,175.1 Z" id="Shape"></path>
                    <path d="M418,188.3 C366.2,188.3 324,146.1 324,94.3 C324,42.5 366.2,0.3 418,0.3 C469.8,0.3 512,42.5 512,94.3 C512,146.1 469.8,188.3 418,188.3 L418,188.3 Z M418,21.4 C377.8,21.4 345.1,54.1 345.1,94.3 C345.1,134.5 377.8,167.2 418,167.2 C458.2,167.2 490.9,134.5 490.9,94.3 C490.9,54.1 458.2,21.4 418,21.4 L418,21.4 Z" id="Shape"></path>
                    <path d="M418,495.7 C366.2,495.7 324,453.5 324,401.7 C324,349.9 366.2,307.7 418,307.7 C469.8,307.7 512,349.9 512,401.7 C512,453.5 469.8,495.7 418,495.7 L418,495.7 Z M418,328.8 C377.8,328.8 345.1,361.5 345.1,401.7 C345.1,441.9 377.8,474.6 418,474.6 C458.2,474.6 490.9,441.9 490.9,401.7 C490.9,361.5 458.2,328.8 418,328.8 L418,328.8 Z" id="Shape"></path>
                    <path d="M161.7,209.8 C157.7,209.8 153.8,207.5 152.1,203.5 C149.7,198.2 152.1,191.9 157.4,189.6 L330.2,112.7 C335.5,110.3 341.8,112.7 344.1,118 C346.5,123.3 344.1,129.6 338.8,131.9 L166,208.9 C164.6,209.5 163.2,209.8 161.7,209.8 L161.7,209.8 Z" id="Shape"></path>
                    <path d="M334.6,384.2 C333.1,384.2 331.6,383.9 330.2,383.2 L159,303.9 C153.7,301.5 151.4,295.2 153.9,289.9 C156.4,284.6 162.6,282.3 167.9,284.8 L339,364.1 C344.3,366.5 346.6,372.8 344.1,378.1 C342.3,381.9 338.5,384.2 334.6,384.2 L334.6,384.2 Z" id="Shape"></path>
                </g>
            </g>
        </g>
    </g>
</svg>