<?xml version="1.0" encoding="UTF-8" standalone="no"?>
<svg width="24px" height="25px" viewBox="0 0 24 25" version="1.1" xmlns="http://www.w3.org/2000/svg" xmlns:xlink="http://www.w3.org/1999/xlink">
    <!-- Generator: Sketch 39.1 (31720) - http://www.bohemiancoding.com/sketch -->
    <title>1473182840_vector_65_03</title>
    <desc>Created with Sketch.</desc>
    <defs></defs>
    <g id="Page-1" stroke="none" stroke-width="1" fill="none" fill-rule="evenodd">
        <g id="1473182840_vector_65_03">
            <g id="Group">
                <path d="M22.7491837,0 L1.25081633,0 C0.593510204,0 0.0564489796,0.537795918 0.0564489796,1.1944898 C0.0564489796,1.85130612 0.593387755,2.38873469 1.25069388,2.38873469 L1.52755102,2.38873469 L1.52755102,14.212898 C1.52755102,15.0690612 2.22416327,15.7656735 3.08057143,15.7656735 L20.9189388,15.7656735 C21.7748571,15.7656735 22.4714694,15.0691837 22.4714694,14.212898 L22.4714694,2.38885714 L22.7491837,2.38885714 C23.4057551,2.38885714 23.943551,1.85142857 23.943551,1.19461224 C23.943551,0.537795918 23.4057551,0 22.7491837,0 L22.7491837,0 Z M21.0380816,14.2130204 C21.0380816,14.2768163 20.9828571,14.3326531 20.9190612,14.3326531 L3.08069388,14.3326531 C3.01616327,14.3326531 2.96081633,14.2768163 2.96081633,14.2130204 L2.96081633,2.38885714 L21.0379592,2.38885714 L21.0379592,14.2130204 L21.0380816,14.2130204 Z" id="Shape" fill="#FFFFFF"></path>
                <path d="M18.0276735,4.64693878 C17.3719592,4.64693878 16.8377143,5.18032653 16.8377143,5.83616327 C16.8377143,6.08608163 16.9152245,6.31959184 17.0477143,6.51 L14.2953061,9.67812245 C14.1366122,9.59804082 13.9568571,9.55371429 13.766449,9.55371429 C13.5563265,9.55371429 13.3604082,9.60820408 13.1892245,9.70359184 L11.949551,8.39963265 C12.063551,8.21681633 12.1306531,8.00106122 12.1306531,7.76938776 C12.1306531,7.11330612 11.5972653,6.57967347 10.9411837,6.57967347 C10.2854694,6.57967347 9.75171429,7.11330612 9.75171429,7.76938776 C9.75171429,7.88669388 9.76836735,7.99812245 9.79922449,8.10514286 L6.80608163,9.89681633 C6.59216327,9.68412245 6.29742857,9.55359184 5.97183673,9.55359184 C5.3164898,9.55359184 4.78212245,10.0869796 4.78212245,10.7428163 C4.78212245,11.3985306 5.3164898,11.9319184 5.97183673,11.9319184 C6.62755102,11.9319184 7.16155102,11.3985306 7.16155102,10.7428163 C7.16155102,10.6252653 7.14502041,10.5138367 7.11232653,10.4066939 L10.107551,8.61526531 C10.3209796,8.82795918 10.6157143,8.9584898 10.9410612,8.9584898 C11.1506939,8.9584898 11.3469796,8.90338776 11.5180408,8.80836735 L12.7563673,10.1122041 C12.6418776,10.2950204 12.5766122,10.5107755 12.5766122,10.7428163 C12.5766122,11.3985306 13.1092653,11.9319184 13.7663265,11.9319184 C14.4216735,11.9319184 14.955551,11.3985306 14.955551,10.7428163 C14.955551,10.4914286 14.8769388,10.2593878 14.744449,10.0678776 L17.4963673,6.90085714 C17.655551,6.98093878 17.8370204,7.0257551 18.027551,7.0257551 C18.682898,7.0257551 19.2170204,6.49187755 19.2170204,5.83604082 C19.2170204,5.18020408 18.682898,4.64693878 18.0276735,4.64693878 L18.0276735,4.64693878 Z M6.56693878,10.7428163 C6.56693878,11.0698776 6.30073469,11.3373061 5.97183673,11.3373061 C5.64367347,11.3373061 5.37673469,11.0698776 5.37673469,10.7428163 C5.37673469,10.4144082 5.64367347,10.1482041 5.97183673,10.1482041 C6.07763265,10.1482041 6.17608163,10.174898 6.26020408,10.2224082 C6.43995918,10.3220816 6.56179592,10.5122449 6.56693878,10.7324082 L6.56693878,10.7428163 L6.56693878,10.7428163 Z M10.9410612,8.364 C10.8357551,8.364 10.7363265,8.33693878 10.6512245,8.28979592 C10.4714694,8.18853061 10.3490204,7.99653061 10.3462041,7.77808163 L10.3462041,7.76938776 C10.3462041,7.44073469 10.6126531,7.17453061 10.9410612,7.17453061 C11.2684898,7.17453061 11.5359184,7.44073469 11.5359184,7.76938776 C11.5359184,7.82693878 11.5269796,7.88510204 11.5105714,7.93861224 C11.4511837,8.13955102 11.2857551,8.29836735 11.0791837,8.34759184 C11.0343673,8.358 10.9888163,8.364 10.9410612,8.364 L10.9410612,8.364 Z M14.3610612,10.7428163 C14.3610612,11.0698776 14.0931429,11.3373061 13.766449,11.3373061 C13.4377959,11.3373061 13.1719592,11.0698776 13.1719592,10.7428163 C13.1719592,10.684898 13.1805306,10.6285714 13.1949796,10.5750612 C13.2543673,10.3710612 13.4216327,10.2134694 13.6275918,10.1644898 C13.6727755,10.1543265 13.7185714,10.1482041 13.7665714,10.1482041 C13.804898,10.1482041 13.842,10.1512653 13.8782449,10.1583673 C14.0876327,10.1986531 14.2596735,10.3486531 14.3286122,10.548 C14.3491837,10.6087347 14.3610612,10.6744898 14.3610612,10.7428163 L14.3610612,10.7428163 Z M18.0276735,6.43114286 C17.9887347,6.43114286 17.9501633,6.42661224 17.9146531,6.4204898 C17.7047755,6.37897959 17.5338367,6.22726531 17.4651429,6.02963265 C17.4442041,5.96840816 17.4329388,5.90289796 17.4329388,5.83604082 C17.4329388,5.50763265 17.7002449,5.24142857 18.027551,5.24142857 C18.3559592,5.24142857 18.6222857,5.50763265 18.6222857,5.83604082 C18.6224082,6.16322449 18.3559592,6.43114286 18.0276735,6.43114286 L18.0276735,6.43114286 Z" id="Shape" fill="#23CCC7"></path>
                <path d="M19.9536735,22.5685714 C19.7572653,22.5685714 19.5753061,22.6277143 19.4233469,22.7284898 L12.4181633,19.1772245 L12.4181633,15.7659184 L11.5818367,15.7659184 L11.5818367,19.1772245 L4.57665306,22.7284898 C4.42469388,22.6278367 4.2424898,22.5685714 4.04632653,22.5685714 C3.516,22.5685714 3.08583673,22.999102 3.08583673,23.5294286 C3.08583673,24.0592653 3.516,24.4899184 4.04632653,24.4899184 C4.57665306,24.4899184 5.00657143,24.0592653 5.00657143,23.5294286 C5.00657143,23.5026122 5.00473469,23.4762857 5.00302041,23.4502041 L11.5818367,20.1148163 L11.5818367,22.6656735 C11.2607755,22.8211837 11.0387755,23.1489796 11.0387755,23.529551 C11.0387755,24.0593878 11.4689388,24.4900408 12,24.4900408 C12.5303265,24.4900408 12.9602449,24.0593878 12.9602449,23.529551 C12.9602449,23.149102 12.7386122,22.8211837 12.4181633,22.6656735 L12.4181633,20.1146939 L18.9968571,23.4500816 C18.9944082,23.4762857 18.992449,23.5026122 18.992449,23.5293061 C18.992449,24.0591429 19.4234694,24.4897959 19.9537959,24.4897959 C20.4841224,24.4897959 20.9140408,24.0591429 20.9140408,23.5293061 C20.9139184,22.9989796 20.484,22.5685714 19.9536735,22.5685714 L19.9536735,22.5685714 Z" id="Shape" fill="#FFFFFF"></path>
            </g>
        </g>
    </g>
</svg>