<?xml version="1.0" encoding="UTF-8"?>
<svg width="318px" height="318px" viewBox="0 0 318 318" version="1.1" xmlns="http://www.w3.org/2000/svg" xmlns:xlink="http://www.w3.org/1999/xlink">
    <!-- Generator: Sketch 40 (33762) - http://www.bohemiancoding.com/sketch -->
    <title>1488491173_chrome</title>
    <desc>Created with Sketch.</desc>
    <defs></defs>
    <g id="Page-1" stroke="none" stroke-width="1" fill="none" fill-rule="evenodd">
        <g id="Desktop-HD" transform="translate(-561.000000, -353.000000)">
            <g id="1488491173_chrome" transform="translate(561.000000, 353.000000)">
                <g id="Layer_1">
                    <g id="Group">
                        <path d="M159,240.36825 C142.851562,240.36825 128.154,236.015625 114.897375,227.33025 C101.64075,218.634937 91.70325,207.45525 85.084875,193.791187 L19.875,79.5 C6.2109375,103.936313 0,131.264438 0,159 C0,198.75 12.938625,233.431875 38.815875,263.035687 C64.693125,292.6395 96.890625,310.338188 135.398438,316.141688 L181.518375,236.333625 C176.877563,237.695063 169.13625,240.36825 159,240.36825 L159,240.36825 Z" id="Shape" fill="#4AAE48"></path>
                        <path d="M109.004438,94.7143125 C123.692063,83.335875 140.367188,79.5 159,79.5 L295.640625,79.5 C281.559188,55.491 262.409625,35.198625 238.191937,21.1171875 C213.964313,7.0456875 187.570312,0 159,0 C134.15625,0 110.962125,5.2768125 89.4375,15.840375 C67.9029375,26.394 47.97825,41.7673125 33.3800625,61.49325 L79.5,139.125 C84.051375,121.326937 94.2969375,106.112625 109.004438,94.7143125 L109.004438,94.7143125 Z" id="Shape" fill="#EA3939"></path>
                        <path d="M306.045187,99.375 L213.65625,99.375 C229.804688,115.523438 240.36825,136.233187 240.36825,159 C240.36825,175.983187 235.608187,191.505562 226.078125,205.587 L160.86825,318 C204.344812,317.582625 241.40175,301.851562 272.049,270.796875 C302.676375,239.742188 318,202.476562 318,159 C318,138.717562 314.5815,117.38175 306.045187,99.375 L306.045187,99.375 Z" id="Shape" fill="#FED14B"></path>
                        <circle id="Oval" fill="#188FD1" cx="159" cy="159" r="59.625"></circle>
                    </g>
                </g>
            </g>
        </g>
    </g>
</svg>