<?xml version="1.0" encoding="UTF-8"?>
<svg width="49px" height="49px" viewBox="0 0 49 49" version="1.1" xmlns="http://www.w3.org/2000/svg" xmlns:xlink="http://www.w3.org/1999/xlink">
    <!-- Generator: Sketch 40 (33762) - http://www.bohemiancoding.com/sketch -->
    <title>1488491452_windows</title>
    <desc>Created with Sketch.</desc>
    <defs></defs>
    <g id="Page-1" stroke="none" stroke-width="1" fill="none" fill-rule="evenodd">
        <g id="Desktop-HD" transform="translate(-769.000000, -795.000000)" fill="#FED14B">
            <g id="windows" transform="translate(744.000000, 771.000000)">
                <g id="1488491452_windows" transform="translate(25.000000, 24.000000)">
                    <g id="Layer_1">
                        <g id="Group">
                            <path d="M48.9285417,11.6311065 C48.9285417,15.2626305 48.9183333,18.8941545 48.93875,22.5154489 C48.93875,23.0064718 48.81625,23.2110647 48.32625,23.1496868 C48.2445833,23.1394572 48.1527083,23.1496868 48.0710417,23.1496868 C41.7827083,23.1803758 35.494375,23.2110647 29.1958333,23.2519833 C27.1439583,23.2622129 25.081875,23.2826722 23.03,23.3235908 C22.5297917,23.3338205 22.35625,23.1906054 22.35625,22.6586639 C22.3766667,16.5924843 22.3766667,10.5263048 22.35625,4.46012526 C22.35625,3.93841336 22.4685417,3.72359081 23.0402083,3.66221294 C25.3370833,3.38601253 27.6135417,3.05866388 29.9002083,2.74154489 C33.0647917,2.2914405 36.2191667,1.82087683 39.3735417,1.37077244 C42.385,0.941127349 45.3964583,0.54217119 48.4079167,0.112526096 C48.8877083,0.0409185804 48.93875,0.245511482 48.93875,0.644467641 C48.9285417,4.29645094 48.9285417,7.96889353 48.9285417,11.6311065 L48.9285417,11.6311065 Z" id="Shape"></path>
                            <path d="M20.120625,13.748643 L20.120625,22.7507307 C20.120625,23.405428 20.120625,23.405428 19.446875,23.405428 C18.2014583,23.4156576 16.96625,23.4156576 15.7208333,23.4258873 C10.7391667,23.4565762 5.7575,23.4872651 0.775833333,23.5281837 C0.0510416667,23.5281837 0.0510416667,23.5384134 0.0510416667,22.8223382 L0.0510416667,7.52901879 C0.0510416667,6.82317328 0.06125,6.85386221 0.755416667,6.75156576 C2.55208333,6.50605428 4.34875,6.22985386 6.14541667,5.97411273 C7.52354167,5.77974948 8.911875,5.61607516 10.29,5.43194154 C13.0666667,5.05344468 15.8433333,4.65448852 18.6097917,4.265762 C19.0079167,4.20438413 19.4060417,4.09185804 19.814375,4.09185804 C20.02875,4.09185804 20.1308333,4.16346555 20.120625,4.38851775 C20.1104167,4.56242171 20.120625,4.72609603 20.120625,4.9 L20.120625,13.748643 L20.120625,13.748643 Z M19.8041667,13.6872651 C19.8041667,10.7615866 19.7939583,7.8256785 19.814375,4.9 C19.814375,4.47035491 19.66125,4.3782881 19.2835417,4.39874739 C18.9670833,4.41920668 18.7220833,4.60334029 18.405625,4.62379958 C17.731875,4.66471816 17.0683333,4.7874739 16.3945833,4.87954071 C15.0777083,5.06367432 13.750625,5.22734864 12.4439583,5.43194154 C11.6477083,5.55469729 10.8208333,5.54446764 10.0552083,5.86158664 C9.9225,5.91273486 9.78979167,5.95365344 9.65708333,5.90250522 C9.22833333,5.72860125 8.789375,5.88204593 8.41166667,5.97411273 C7.45208333,6.21962422 6.461875,6.28100209 5.481875,6.41398747 C4.66520833,6.52651357 3.84854167,6.69018789 3.02166667,6.72087683 C2.3275,6.74133612 1.70479167,7.0993737 0.990208333,7.06868476 C0.377708333,7.03799582 0.296041667,7.15052192 0.296041667,7.78475992 L0.296041667,22.5052192 C0.296041667,23.1701461 0.3675,23.2212944 1.03104167,23.231524 C4.2875,23.2826722 7.55416667,23.0780793 10.810625,23.1189979 C13.5260417,23.1496868 16.2516667,23.1292276 18.9670833,23.1189979 C19.753125,23.1189979 19.7939583,23.088309 19.7939583,22.2699374 C19.8041667,19.4056367 19.8041667,16.5515658 19.8041667,13.6872651 L19.8041667,13.6872651 Z" id="Shape"></path>
                            <path d="M20.120625,35.3229645 C20.120625,38.3407098 20.1104167,41.3584551 20.1308333,44.3762004 C20.1308333,44.8365344 20.0389583,45.0002088 19.5489583,44.9183716 C18.0789583,44.6830898 16.59875,44.4784969 15.1185417,44.273904 C13.5872917,44.0590814 12.0560417,43.8851775 10.5247917,43.6601253 C8.360625,43.3532359 6.19645833,43.0156576 4.02208333,42.7087683 C2.87875,42.5450939 1.73541667,42.3814196 0.592083333,42.2586639 C0.18375,42.2177453 0.0408333333,42.0847599 0.0408333333,41.6653445 C0.0510416667,36.4686848 0.0510416667,31.2720251 0.0408333333,26.0651357 C0.0408333333,25.625261 0.153125,25.4206681 0.622708333,25.5025052 C0.837083333,25.5331942 1.06166667,25.5127349 1.28625,25.5127349 C7.39083333,25.5434238 13.4954167,25.5843424 19.6,25.6048017 C20.0389583,25.6048017 20.1410417,25.7480167 20.1308333,26.1572025 C20.1104167,29.2158664 20.120625,32.2643006 20.120625,35.3229645 L20.120625,35.3229645 Z M19.8041667,35.3331942 C19.8041667,32.4688935 19.78375,29.6045929 19.814375,26.7505219 C19.8245833,26.0037578 19.4877083,25.8912317 18.9364583,25.8912317 C18.099375,25.8912317 17.2725,25.9321503 16.4252083,25.911691 C12.6889583,25.8093946 8.95270833,25.9832985 5.21645833,25.7991649 C3.80770833,25.7275574 2.39895833,25.7889353 0.98,25.7889353 C0.357291667,25.7889353 0.285833333,25.8707724 0.285833333,26.5050104 L0.285833333,41.276618 C0.285833333,41.9415449 0.387916667,42.0029228 1.04125,42.0643006 C2.051875,42.1563674 3.0625,42.2382046 4.05270833,42.4325678 C5.298125,42.6678497 6.55375,42.8008351 7.809375,42.974739 C8.46270833,43.0668058 9.13645833,43.0872651 9.75916667,43.2407098 C10.6472917,43.4453027 11.545625,43.5066806 12.43375,43.6498956 C13.4035417,43.8135699 14.4039583,43.9363257 15.3941667,44.0386221 C16.66,44.1818372 17.9360417,44.3250522 19.1916667,44.6012526 C19.6,44.6933194 19.7939583,44.5705637 19.7939583,44.0795407 C19.7939583,41.1538622 19.8041667,38.2384134 19.8041667,35.3331942 L19.8041667,35.3331942 Z" id="Shape"></path>
                            <path d="M48.969375,37.4098121 L48.969375,48.2532359 C48.969375,49.0409186 48.969375,49.0511482 48.1629167,48.9386221 C46.24375,48.6624217 44.3347917,48.3759916 42.415625,48.1100209 C39.7716667,47.7417537 37.1277083,47.3939457 34.4939583,47.0154489 C31.9929167,46.6676409 29.4816667,46.3096033 26.980625,45.9311065 C25.5922917,45.7162839 24.1835417,45.6037578 22.7952083,45.3480167 C22.35625,45.2661795 22.3460417,45.0718163 22.3460417,44.7444676 L22.3460417,34.7705637 L22.3460417,26.2799582 C22.3460417,25.6559499 22.3664583,25.6150313 23.0197917,25.625261 C31.5029167,25.768476 39.9860417,25.768476 48.4691667,25.8093946 C48.8979167,25.8093946 48.969375,25.9832985 48.969375,26.3515658 C48.969375,30.0444676 48.969375,33.7271399 48.969375,37.4098121 L48.969375,37.4098121 L48.969375,37.4098121 Z M48.7958333,37.3075157 L48.7958333,28.9192067 L48.7958333,26.5152401 C48.7958333,26.3106472 48.8366667,26.0958246 48.5202083,26.0753653 C48.1629167,26.0549061 47.8158333,25.9935282 47.4585417,25.9832985 C43.9060417,25.9219207 40.3535417,25.9832985 36.8010417,25.9014614 C32.2991667,25.7991649 27.7870833,25.8707724 23.275,25.8707724 C22.5604167,25.8707724 22.5604167,25.8707724 22.5604167,26.5663883 L22.5604167,43.5475992 C22.5604167,43.956785 22.570625,44.3659708 22.5604167,44.7751566 C22.5502083,45.0820459 22.6829167,45.1843424 22.9891667,45.2048017 C23.4791667,45.2354906 23.9589583,45.3480167 24.4489583,45.3582463 C25.29625,45.3787056 26.1027083,45.6753653 26.9602083,45.7162839 C27.7870833,45.7572025 28.60375,45.8697286 29.4204167,45.9720251 C30.3902083,46.1050104 31.3497917,46.3812109 32.3195833,46.3914405 C33.411875,46.4016701 34.453125,46.7392484 35.5352083,46.8006263 C36.5458333,46.8620042 37.5360417,47.097286 38.5364583,47.240501 C39.720625,47.4041754 40.915,47.5269311 42.0991667,47.7212944 C43.0179167,47.874739 43.9366667,47.9463466 44.8554167,48.0691023 C45.815,48.2020877 46.7541667,48.4271399 47.7239583,48.3759916 C47.7954167,48.3759916 47.8770833,48.4475992 47.9485417,48.4782881 C48.540625,48.7340292 48.7958333,48.5703549 48.7958333,47.9156576 L48.7958333,37.3075157 L48.7958333,37.3075157 Z" id="Shape"></path>
                            <path d="M19.8041667,13.6872651 L19.8041667,22.2699374 C19.8041667,23.088309 19.7735417,23.1189979 18.9772917,23.1189979 C16.261875,23.1189979 13.53625,23.1496868 10.8208333,23.1189979 C7.55416667,23.0780793 4.29770833,23.2724426 1.04125,23.231524 C0.377708333,23.2212944 0.30625,23.1599165 0.30625,22.5052192 L0.30625,7.78475992 C0.30625,7.15052192 0.387916667,7.03799582 1.00041667,7.06868476 C1.70479167,7.10960334 2.33770833,6.74133612 3.031875,6.72087683 C3.85875,6.70041754 4.67541667,6.52651357 5.49208333,6.41398747 C6.461875,6.28100209 7.45208333,6.22985386 8.421875,5.97411273 C8.79958333,5.87181628 9.23854167,5.72860125 9.66729167,5.90250522 C9.8,5.95365344 9.93270833,5.91273486 10.0654167,5.86158664 C10.8310417,5.54446764 11.6579167,5.55469729 12.4541667,5.43194154 C13.7710417,5.22734864 15.0879167,5.05344468 16.4047917,4.87954071 C17.0683333,4.7874739 17.7420833,4.66471816 18.4158333,4.62379958 C18.7322917,4.60334029 18.9875,4.41920668 19.29375,4.39874739 C19.6816667,4.3782881 19.8245833,4.48058455 19.8245833,4.9 C19.8041667,7.8256785 19.8041667,10.751357 19.8041667,13.6872651 L19.8041667,13.6872651 Z" id="Shape"></path>
                            <path d="M19.8041667,35.3331942 C19.8041667,38.248643 19.7939583,41.1640919 19.814375,44.0693111 C19.814375,44.560334 19.6204167,44.6830898 19.2120833,44.591023 C17.9564583,44.3148225 16.6804167,44.1613779 15.4145833,44.0283925 C14.424375,43.9158664 13.4239583,43.7931106 12.4541667,43.639666 C11.5660417,43.4964509 10.6677083,43.4350731 9.77958333,43.2304802 C9.156875,43.0872651 8.483125,43.0565762 7.82979167,42.9645094 C6.57416667,42.7906054 5.31854167,42.65762 4.073125,42.4223382 C3.08291667,42.2279749 2.07229167,42.1461378 1.06166667,42.054071 C0.398125,41.9926931 0.30625,41.9415449 0.30625,41.2663883 L0.30625,26.4947808 C0.30625,25.8503132 0.377708333,25.7787056 1.00041667,25.7787056 C2.40916667,25.7787056 3.828125,25.7173278 5.236875,25.7889353 C8.973125,25.9730689 12.709375,25.7889353 16.445625,25.9014614 C17.2827083,25.9219207 18.1197917,25.8912317 18.956875,25.8810021 C19.508125,25.8810021 19.845,25.9935282 19.8347917,26.7402923 C19.78375,29.6045929 19.8041667,32.4688935 19.8041667,35.3331942 L19.8041667,35.3331942 Z" id="Shape"></path>
                            <path d="M48.7958333,37.3075157 L48.7958333,47.9463466 C48.7958333,48.6010438 48.540625,48.7647182 47.9485417,48.508977 C47.866875,48.4782881 47.7954167,48.4066806 47.7239583,48.4066806 C46.7541667,48.4578288 45.8047917,48.2327766 44.8554167,48.0997912 C43.9366667,47.9770355 43.0179167,47.905428 42.0991667,47.7519833 C40.915,47.5473904 39.720625,47.4348643 38.5364583,47.27119 C37.5360417,47.1279749 36.535625,46.8926931 35.5352083,46.8313152 C34.453125,46.7597077 33.4220833,46.4323591 32.3195833,46.4221294 C31.3497917,46.4118998 30.3902083,46.1356994 29.4204167,46.002714 C28.60375,45.8901879 27.776875,45.7878914 26.9602083,45.7469729 C26.1129167,45.7060543 25.3064583,45.4093946 24.4489583,45.3889353 C23.9589583,45.3787056 23.4791667,45.2661795 22.9891667,45.2354906 C22.693125,45.2150313 22.5604167,45.1025052 22.5604167,44.8058455 C22.570625,44.3966597 22.5604167,43.9874739 22.5604167,43.5782881 L22.5604167,26.5970772 C22.5604167,25.9014614 22.5604167,25.9014614 23.275,25.9014614 C27.7870833,25.9014614 32.2889583,25.8298539 36.8010417,25.9321503 C40.3535417,26.0139875 43.9060417,25.9526096 47.4585417,26.0139875 C47.8158333,26.0242171 48.1629167,26.085595 48.5202083,26.1060543 C48.8366667,26.1162839 48.7958333,26.3413361 48.7958333,26.545929 L48.7958333,28.9498956 C48.7958333,31.7221294 48.7958333,34.5148225 48.7958333,37.3075157 L48.7958333,37.3075157 Z" id="Shape"></path>
                        </g>
                    </g>
                </g>
            </g>
        </g>
    </g>
</svg>