<?xml version="1.0" encoding="UTF-8" standalone="no"?>
<svg width="306px" height="200px" viewBox="0 0 306 200" version="1.1" xmlns="http://www.w3.org/2000/svg" xmlns:xlink="http://www.w3.org/1999/xlink">
    <!-- Generator: Sketch 39.1 (31720) - http://www.bohemiancoding.com/sketch -->
    <title>api</title>
    <desc>Created with Sketch.</desc>
    <defs></defs>
    <g id="Page-1" stroke="none" stroke-width="1" fill="none" fill-rule="evenodd">
        <g id="1473263244_api-code-window">
            <g id="api-code-window">
                <g id="Group">
                    <g id="_x34_">
                        <g id="api">
                            <path d="M240.652,178.624 C240.088,178.613 239.545,178.559 239.013,178.456 C237.884,183.192 233.598,186.795 228.553,186.806 L23.92,186.806 C18.039,186.795 13.162,181.923 13.151,176.036 L13.151,39.155 L239.322,39.155 L239.322,45.975 C239.784,45.899 240.25,45.842 240.733,45.842 L252.235,45.842 L252.235,23.97 C252.224,10.892 241.629,0.302 228.553,0.272 L23.92,0.272 C10.84,0.301 0.244,10.892 0.222,23.97 L0.222,176.037 C0.244,189.106 10.84,199.708 23.92,199.729 L228.554,199.729 C240.744,199.707 250.667,190.462 251.975,178.614 L240.696,178.625 L240.652,178.625 L240.652,178.624 Z M226.036,15.457 C229.014,15.457 231.424,17.868 231.424,20.847 C231.424,23.815 229.015,26.229 226.036,26.229 C223.062,26.229 220.654,23.815 220.654,20.847 C220.654,17.868 223.062,15.457 226.036,15.457 L226.036,15.457 Z M183.719,15.785 L210.195,15.785 C213.005,15.785 215.267,18.047 215.267,20.847 C215.267,23.641 213.004,25.909 210.195,25.909 L183.719,25.909 C180.919,25.909 178.652,23.641 178.652,20.847 C178.651,18.047 180.919,15.785 183.719,15.785 L183.719,15.785 Z" id="Shape" fill="#6B69EA"></path>
                            <g id="Group" stroke-width="1" transform="translate(188.000000, 53.000000)">
                                <path d="M66.324,32.867 C63.974,32.208 61.495,31.83 58.934,31.83 C57.333,31.83 55.787,31.998 54.268,32.259 C48.566,33.238 43.466,35.94 39.554,39.854 C34.585,44.813 31.535,51.663 31.535,59.228 C31.535,66.802 34.585,73.649 39.554,78.602 C43.108,82.156 47.627,84.706 52.684,85.888 C54.697,86.355 56.775,86.626 58.934,86.626 C61.245,86.626 63.492,86.306 65.64,85.763 C70.511,84.537 74.863,82.041 78.302,78.602 C83.267,73.649 86.331,66.802 86.331,59.228 C86.331,51.663 83.267,44.813 78.302,39.854 C75.031,36.575 70.914,34.155 66.324,32.867 L66.324,32.867 Z M66.324,66.266 C64.457,68.224 61.843,69.456 58.934,69.456 C57.242,69.456 55.662,69.006 54.268,68.279 C50.98,66.575 48.712,63.179 48.712,59.229 C48.712,55.269 50.98,51.88 54.268,50.177 C55.663,49.452 57.242,49.005 58.934,49.005 C61.842,49.005 64.456,50.234 66.324,52.187 C68.082,54.021 69.167,56.49 69.167,59.229 C69.167,61.958 68.082,64.438 66.324,66.266 L66.324,66.266 Z" id="Shape" fill="#6B69EA"></path>
                                <path d="M116.161,51.234 L103.78,49.761 C102.608,44.129 100.379,38.88 97.324,34.22 L105.05,24.416 C105.604,23.73 105.549,22.645 104.909,22.018 L96.146,13.245 C95.523,12.627 94.443,12.556 93.732,13.107 L83.939,20.833 C79.279,17.789 74.039,15.562 68.401,14.385 L66.932,2 C66.888,1.558 66.661,1.159 66.325,0.866 C66.005,0.584 65.581,0.4 65.131,0.4 L54.27,0.4 L52.735,0.4 C51.85,0.4 51.043,1.116 50.928,2.001 L49.474,14.387 C43.831,15.564 38.585,17.791 33.93,20.835 L24.121,13.109 C23.437,12.558 22.357,12.629 21.718,13.247 L12.961,22.02 C12.326,22.647 12.256,23.732 12.82,24.423 L20.535,34.221 C17.497,38.881 15.262,44.13 14.09,49.762 L1.709,51.235 C0.819,51.336 0.103,52.146 0.103,53.028 L0.103,65.425 C0.103,66.315 0.82,67.128 1.709,67.236 L14.09,68.69 C15.262,74.333 17.497,79.574 20.535,84.25 L15.511,90.631 L12.821,94.038 C12.257,94.743 12.327,95.817 12.962,96.435 L19.212,102.696 L19.331,102.827 L21.719,105.203 C22.348,105.832 23.439,105.897 24.133,105.344 L27.339,102.827 L27.486,102.696 L33.931,97.618 C37.17,99.74 40.703,101.416 44.446,102.675 C44.582,102.719 44.707,102.783 44.842,102.827 C46.35,103.315 47.891,103.744 49.475,104.074 L50.929,116.455 C51.043,117.34 51.851,118.051 52.736,118.061 L65.132,118.05 C66.011,118.061 66.841,117.339 66.934,116.454 L68.404,104.073 C69.972,103.743 71.513,103.314 73.032,102.826 C76.917,101.567 80.596,99.814 83.942,97.617 L90.529,102.815 L93.735,105.342 C94.446,105.896 95.526,105.83 96.149,105.201 L98.542,102.814 L104.912,96.433 C105.552,95.815 105.606,94.741 105.053,94.036 L97.327,84.248 C100.382,79.572 102.611,74.331 103.783,68.688 L116.164,67.234 C117.032,67.126 117.78,66.312 117.78,65.423 L117.78,53.026 C117.777,52.146 117.029,51.335 116.161,51.234 L116.161,51.234 Z M63.074,91.943 C61.712,92.117 60.334,92.236 58.934,92.236 C54.822,92.236 50.915,91.444 47.291,90.077 C34.817,85.368 25.937,73.346 25.937,59.228 C25.937,42.591 38.263,28.871 54.268,26.597 C55.792,26.375 57.339,26.228 58.934,26.228 C61.473,26.228 63.947,26.545 66.324,27.093 C80.977,30.454 91.931,43.553 91.931,59.227 C91.932,76.036 79.345,89.903 63.074,91.943 L63.074,91.943 Z" id="Shape" fill="#FF931E"></path>
                            </g>
                            <g id="Group" stroke-width="1" transform="translate(54.000000, 89.000000)" fill="#6B69EA">
                                <path d="M15.873,0.586 L0.617,47.556 L14.5,47.556 L16.871,38.789 L32.067,38.789 L34.368,47.556 L48.191,47.556 L32.745,0.586 L15.873,0.586 L15.873,0.586 Z M19.497,28.415 C21.439,21.08 22.687,16.165 23.251,13.672 C23.815,11.176 24.195,9.383 24.39,8.301 C24.602,9.473 25.046,11.41 25.714,14.117 C26.387,16.827 26.962,19.04 27.428,20.744 L29.447,28.415 L19.497,28.415 L19.497,28.415 Z" id="Shape"></path>
                                <path d="M72.72,0.778 L56.52,0.778 L56.52,47.555 L69.161,47.555 L69.161,32.034 L72.72,32.034 C78.384,32.034 82.762,30.607 85.838,27.764 C88.925,24.915 90.472,20.884 90.472,15.655 C90.472,10.899 88.985,7.232 86.023,4.649 C83.061,2.07 78.623,0.778 72.72,0.778 L72.72,0.778 Z M75.986,20.137 C74.879,21.199 73.36,21.732 71.466,21.732 L69.16,21.732 L69.16,10.984 L72.426,10.984 C75.92,10.984 77.672,12.566 77.672,15.72 C77.673,17.598 77.109,19.073 75.986,20.137 L75.986,20.137 Z" id="Shape"></path>
                                <rect id="Rectangle-path" x="101.203" y="0.778" width="12.695" height="46.777"></rect>
                            </g>
                        </g>
                    </g>
                </g>
            </g>
        </g>
    </g>
</svg>