<?xml version="1.0" encoding="UTF-8" standalone="no"?>
<svg width="498px" height="426px" viewBox="0 0 498 426" version="1.1" xmlns="http://www.w3.org/2000/svg" xmlns:xlink="http://www.w3.org/1999/xlink">
    <!-- Generator: Sketch 39.1 (31720) - http://www.bohemiancoding.com/sketch -->
    <title>1473262876_folder</title>
    <desc>Created with Sketch.</desc>
    <defs></defs>
    <g id="Page-1" stroke="none" stroke-width="1" fill="none" fill-rule="evenodd">
        <g id="1473262876_folder" fill="#6B69EA">
            <g id="Layer_1">
                <path d="M456.301,51.852 L186.668,51.852 L186.668,41.482 C186.668,18.574 168.094,0 145.186,0 L41.482,0 C18.574,0 0,18.574 0,41.482 L0,93.334 L0,165.927 L0,383.707 C0,406.614 18.574,425.189 41.482,425.189 L456.301,425.189 C479.209,425.189 497.783,406.614 497.783,383.707 L497.783,93.334 C497.783,70.426 479.209,51.852 456.301,51.852 L456.301,51.852 Z M20.741,41.482 C20.741,30.047 30.049,20.741 41.482,20.741 L145.187,20.741 C156.62,20.741 165.928,30.047 165.928,41.482 L165.928,51.852 L165.928,72.593 L186.669,72.593 L456.302,72.593 C467.735,72.593 477.043,81.899 477.043,93.334 L477.043,114.075 L20.741,114.075 L20.741,93.334 L20.741,41.482 L20.741,41.482 Z M456.301,404.449 L41.482,404.449 C30.049,404.449 20.741,395.142 20.741,383.708 L20.741,165.928 L20.741,134.817 L477.042,134.817 L477.042,383.709 C477.042,395.141 467.735,404.449 456.301,404.449 L456.301,404.449 Z" id="Shape"></path>
                <g id="1473262931_eye_preview_see_seen_view" transform="translate(93.000000, 165.000000)">
                    <g id="Layer_1">
                        <g id="Group">
                            <path d="M156.5,200 C109.128036,200 64.2996071,179.922222 30.2451071,143.466667 C26.0577143,138.988889 26.3020714,131.955556 30.77825,127.766667 C35.2655357,123.577778 42.28525,123.822222 46.48375,128.3 C76.2842143,160.211111 115.348036,177.777778 156.5,177.777778 C209.403321,177.777778 258.11925,148.833333 288.008571,100 C258.130357,51.1666667 209.403321,22.2222222 156.5,22.2222222 C101.652929,22.2222222 51.2931429,53.3444444 21.7703571,105.477778 C18.7492143,110.822222 11.9516429,112.711111 6.63132143,109.666667 C1.28878571,106.644444 -0.577214286,99.8666667 2.44392857,94.5222222 C35.9541786,35.3333333 93.5558214,0 156.5,0 C219.455286,0 277.045821,35.3333333 310.556071,94.5222222 C312.477607,97.9222222 312.477607,102.077778 310.556071,105.466667 C277.045821,164.655556 219.455286,200 156.5,200 L156.5,200 Z" id="Shape"></path>
                            <path d="M156.5,155.555556 C125.877607,155.555556 100.964286,130.633333 100.964286,100 C100.964286,69.3666667 125.877607,44.4444444 156.5,44.4444444 C187.122393,44.4444444 212.035714,69.3666667 212.035714,100 C212.035714,130.633333 187.122393,155.555556 156.5,155.555556 L156.5,155.555556 Z M156.5,66.6666667 C138.128786,66.6666667 123.178571,81.6222222 123.178571,100 C123.178571,118.377778 138.128786,133.333333 156.5,133.333333 C174.871214,133.333333 189.821429,118.377778 189.821429,100 C189.821429,81.6222222 174.871214,66.6666667 156.5,66.6666667 L156.5,66.6666667 Z" id="Shape"></path>
                        </g>
                    </g>
                </g>
            </g>
        </g>
    </g>
</svg>